<svg xmlns="http://www.w3.org/2000/svg" width="1080" height="1350"><path fill="#fefefe" d="M0 0h1080v1350H0z"/><path fill="#2b3690" d="m247 447 3.86.52c17.99 2.892 36.044 8.97 52.14 17.48l2.11 1.084C316.6 472.02 326.934 478.892 337 487l1.761 1.41c38.238 30.851 64.168 75.954 69.822 124.983.762 7.571.751 15.167.733 22.77-.003 2.702.02 5.404.045 8.107.06 16.555-2.307 31.922-7.361 47.73l-.668 2.141c-3.125 9.98-6.69 19.466-11.332 28.859-.425.935-.85 1.87-1.29 2.832-6.472 13.836-15.632 26.734-25.71 38.168l-2.578 2.945c-18.647 20.995-41.481 37.56-67.466 48.228-2.096.886-4.153 1.845-6.218 2.804-5.255 2.342-10.657 3.984-16.175 5.586l-2.89.88c-16.826 4.926-33.271 6.134-50.735 6.057l-3.13-.003c-15.813-.049-30.552-1.03-45.808-5.497l-4.441-1.2C143.06 818.023 123.263 808.438 106 796l-3.098-2.23c-23.362-17.226-42.496-39.384-55.99-65.073-.806-1.5-1.672-2.969-2.545-4.431-4.807-8.105-7.622-16.906-10.553-25.815-.73-2.197-1.49-4.379-2.263-6.56-6.065-17.547-7.115-35.838-6.988-54.266l.008-2.832c.062-14.28.904-27.901 4.429-41.793l1.063-4.629C38.17 554.921 57.502 525.607 81 501l1.824-1.984c5.215-5.517 11.322-10.051 17.353-14.628q1.738-1.322 3.459-2.666c40.24-31.41 93.57-41.718 143.364-34.722"/><path fill="#fcfcfd" d="M182 557c4.57 1.246 6.954 3.764 10.121 7.082 1.841 1.88 3.753 3.586 5.754 5.293 3.01 2.591 5.836 5.298 8.625 8.125 3.382 3.429 6.88 6.62 10.535 9.754 2.78 2.47 5.354 5.125 7.961 7.773 2.586 2.546 5.32 4.893 8.07 7.258 1.889 1.675 3.666 3.414 5.434 5.215 3.065 3.113 6.263 6.016 9.586 8.852a96 96 0 0 1 3.578 3.234c2.228 2.068 3.686 3.364 6.774 3.601 7.14-3.308 11.051-8.948 14.687-15.687C281.2 592.821 281.2 592.821 287 591c2.578-.195 2.578-.195 5.25-.125l2.703.055L297 591q-.175 3.688-.375 7.375c-.03.68-.062 1.359-.094 2.059-.219 3.901-.695 7.605-1.511 11.43-1.122 5.3-1.568 10.552-1.957 15.948-2.235 27.507-4.99 60.863-27.403 80.208-5.793 4.347-11.786 6.834-18.66 8.98l-2.848 1.09c-13.997 4.041-31.042-.05-43.714-6.367C185.25 703.156 174.833 689.034 165 675l-1.366-1.942q-2.231-3.18-4.446-6.37l-1.42-2.03c-7.214-10.465-7.214-10.465-6.956-17.533l.083-2.93L151 642l4-2c8.103 7.383 16.013 14.814 23.317 22.999 2.52 2.897 2.52 2.897 5.683 5.001-.67-5.94-1.829-9.26-5.93-13.656l-2.452-2.633c-5.257-5.443-10.651-10.744-16.065-16.031-14.342-14.165-14.342-14.165-14.686-21.528l.008-3.215-.008-3.222C145 605 145 605 146 603c3.305-.382 4.649-.252 7.395 1.723l2.417 2.34c2.963 2.827 5.935 5.61 9.028 8.292 4.064 3.536 7.996 7.195 11.91 10.895A1667 1667 0 0 0 197 645c.068-3.973-.004-7.565-2.325-10.907-1.835-1.852-3.741-3.541-5.738-5.218l-4.382-3.895-2.283-1.986c-3.64-3.194-7.177-6.495-10.71-9.807l-2.02-1.89c-16.003-15.08-16.003-15.08-16.808-22.867l.016-2.555-.016-2.57C153 581 153 581 155 578c4.874.432 7.622 2.85 11.125 6q1.735 1.517 3.473 3.031l1.738 1.528c2.359 2.043 4.791 3.99 7.226 5.941 4.478 3.639 8.72 7.47 12.94 11.399 4.22 3.906 8.624 7.546 13.123 11.128 2.265 1.882 4.33 3.857 6.375 5.973.766-5.034-.05-7.6-2.937-11.812-3.333-4.44-6.982-8.54-10.735-12.625-3.972-4.372-7.71-8.895-11.328-13.563l-2.121-2.684c-4.46-6.183-5.621-10.86-5.418-18.468.58-3.068 1.47-4.553 3.539-6.848"/><path fill="#2c3690" d="M817 557h23v50l14-7c12.478-4.257 29.94-4.004 42.32.676 4.649 2.297 8.666 5.054 12.68 8.324l2.371 1.844c10.711 8.815 17.417 21.54 19.629 35.156 1.645 18.597.122 36.988-12 52-9.493 10.78-18.574 15.565-32 20l-3 1c-18.157.987-35.066-1.075-49.375-13.312-10.879-10.479-17.53-25.745-17.866-40.94q-.007-3.015.014-6.03v-3.343c0-3.625.016-7.25.032-10.875l.008-7.566q.012-8.919.043-17.838c.022-6.774.033-13.548.043-20.322.021-13.925.058-27.85.101-41.774"/><path fill="#2c3791" d="m740.563 597.563 2.9-.031c17.275.21 29.737 7.412 41.537 19.468 10.678 11.527 14.68 28.411 14.215 43.79-1.164 17.39-6.95 32.228-19.63 44.558-12.936 10.986-28.856 14.926-45.538 13.868-5.302-.56-10.135-2.223-15.047-4.216l-2.637-1.027c-13.271-5.855-22.31-17.15-27.676-30.348A587 587 0 0 1 687 679l-1.043-2.352c-5.178-14.33-2.514-33.28 3.64-46.875C695.673 617.761 704.802 607.906 717 602l2.488-1.25c6.917-2.883 13.683-3.132 21.074-3.187"/><path fill="#2c3790" d="m556.375 556.813 2.71-.038c5.911-.012 11.21.709 16.915 2.225l2.574.605c11.01 3.033 28.628 10.195 34.754 20.665L614 582a391 391 0 0 1-7 7l-2.105 2.059c-.688.64-1.375 1.28-2.082 1.941l-1.918 1.813C599 596 599 596 596.988 595.859c-2.203-.952-3.763-2.081-5.613-3.609C578.173 582.093 563.266 579.664 547 581c-3.88.602-7.353 1.559-11 3l-2.535.996c-12.41 5.543-20.464 15.22-26.004 27.383-6.374 17.074-5.857 37.177 1.636 53.806 2.157 4.337 4.822 8.099 7.903 11.815l1.813 2.688c7.879 8.33 20.06 14.644 31.606 15.489 11.72.267 22.54.384 33.753-3.302C587 692 587 692 591 692v-39h-27v-21h50v74c-26.828 12.382-55.242 18.14-84.152 9.004-20.084-7.627-34.353-21.876-43.567-41.137-8.84-19.78-9.44-46.083-2.469-66.492q1.062-2.701 2.188-5.375l1.02-2.453c8.066-17.672 22.869-31.268 40.968-38.125 9.534-3.368 18.33-4.602 28.387-4.61"/><path fill="#2c3791" d="M1032.875 605.75c14.313 11.391 19.917 22.891 25.125 40.25v21h-86c4.053 12.16 8.078 20.842 19.176 27.258 8.77 4.105 18.504 4.161 27.636 1.117 5.173-2.133 9.704-5.053 14.188-8.375 4.325 1.659 7.094 4.871 10.25 8.125l1.68 1.707q2.04 2.079 4.07 4.168c-10.3 10.605-24.662 18.094-39.66 18.38-16.764-.036-31.543-4.065-43.957-15.876-14.292-15.018-17.951-31.018-17.656-51.094.57-16.058 6.78-29.443 17.812-41.152 17.551-16.103 47.417-19.332 67.336-5.508"/><path fill="#fbfbfd" d="M187 747c1.499.092 2.994.25 4.484.43 7.159.718 14.29.72 21.475.7 2.273-.005 4.546 0 6.818.007q2.245 0 4.489-.004h2.215c3.631-.025 7.202-.163 10.816-.534l2.065-.2c1.853-.195 3.704-.424 5.554-.655 3.084.256 3.084.256 5.593 2.477 1.812 2.517 3.207 4.96 4.491 7.779l1 2c6.01.42 11.289-.882 17.11-2.344C276 756 276 756 279 756c.352 18.41-.555 36.74-3 55-7.5 2.947-14.976 4.8-22.834 6.514-1.932.434-3.853.917-5.771 1.408-25.954 6-57.066 3.136-82.395-4.922l-1.949-.617c-1.922-.696-1.922-.696-5.051-2.383-1.75-5.883-1.642-12.409-2.062-18.5-.09-1.285-.18-2.57-.271-3.895-.71-10.884-.881-21.703-.667-32.605l10 2 2.694.536q2.262.456 4.517.948c2.613.321 4.272.353 6.789-.484 2.926-3.366 4.937-7.064 7-11zM374 581c10.993 4.91 16.426 14.528 20.906 25.148 6.733 18.11 6.204 41.447 1.094 59.852l-.809 3.188c-3.13 10.904-9.333 19.638-19.066 25.562-5.045 2.018-8.647 1.76-13.75 0-12.974-6.727-17.263-20.413-21.625-33.5-4.84-20.975-2.864-47.25 7.848-66.055 6.175-9.48 13.7-15.936 25.402-14.195"/><path fill="#fcfcfd" d="m101 592-.402 2.79c-1.882 13.485-2.785 26.868-2.783 40.486-.002 2.09-.02 4.18-.04 6.27-.04 9.632.815 18.932 2.225 28.454l.446 3.066c.508 3.421 1.045 6.838 1.585 10.254l.383 2.477.342 2.167C103 690 103 690 103 694c-2 0-2 0-4.25-1.984-2.107-2.171-3.794-4.475-5.5-6.97-4.221-5.795-8.324-11.071-15.543-12.864-7.464-.852-14.9-.629-22.392-.294-4.246.144-8.4-.083-12.627-.45L37 671c-1.695-10.41-2.317-20.524-2.26-31.06.01-2.372 0-4.743-.013-7.114-.015-13.19.394-26.408 5.273-38.826 20.375-2.043 40.549-2.232 61-2"/><path fill="#fcfdfd" d="M888.363 621.55C896.99 626.292 902.52 632.877 906 642l1.102 2.766c3.043 10.958 1.55 24.005-3.102 34.234-4.12 7.265-11.268 14.995-19.41 17.559-9.453 1.61-19.237 1.93-27.649-3.137-2.638-1.933-4.816-3.932-6.941-6.422l-2.625-2.875c-6.225-8.19-6.593-16.45-6.687-26.312l-.088-3.002c-.08-9.373 2.492-17.426 8.4-24.811 10.77-10.935 24.812-14.503 39.363-8.45"/><path fill="#fdfdfe" d="M759.629 623.629C767.86 629.7 772.727 637.02 775 647c1.44 14.148.315 26.407-7.75 38.438-4.774 5.819-11.03 9.595-18.25 11.562-9.248.844-18.66.746-26.473-4.734-7.786-6.533-12.986-15.084-14.527-25.266-.165-2.939-.185-5.87-.187-8.812l-.038-2.33c-.028-11.312 3.596-20.678 11.225-29.03 10.977-10.034 28.09-10.969 40.629-3.2"/><path fill="#2f3a92" d="M641 557h24v160h-24z"/><path fill="#f7f7fb" d="M121.438 499.75c3.713 3.261 4.401 4.774 4.937 9.688-.206 8.448-3.848 16.979-7.375 24.562l3.813 1.184c5.604 1.87 10.868 4.323 16.187 6.879l2.887 1.353 2.738 1.307 2.477 1.18C149 547 149 547 150 549c-1.215 2.383-1.215 2.383-2.937 5.125l-1.715 2.758L144 559c-6.958-2.057-13.404-5.362-19.945-8.455C117.3 547.128 117.3 547.128 110 546c-2.648 1.986-2.648 1.986-5 4.875-4.079 4.456-8.26 7.968-13.375 11.188l-1.766 1.118C82.611 567.634 76.513 569.19 68 568c-2.974-2.216-4.37-3.74-6-7-1.574-13.602 3.965-25.312 12-36 10.24-12.394 29.493-34.386 47.438-25.25"/><path fill="#f6f7fa" d="M328.527 499.578C345.57 505.655 359.58 521.374 368 537c3.517 7.958 5.337 16.308 4 25-1.999 3.57-4.069 5.765-8 7-10.41 1-19.718-4.75-27.578-11.074-13.206-11.606-25.702-26.056-27.797-44.168-.186-4.76-.195-7.789 2.25-11.946 4.979-4.246 11.504-3.64 17.652-2.234"/><path fill="#f9fafc" d="M153 480c20.992-.37 39.04 1.086 58.688 8.813 6.162 2.209 9.14.897 14.84-1.735 16.984-7.405 37.266-7.611 55.472-7.078.341 3.145.671 6.291 1 9.438l.29 2.662c.585 5.668.803 11.202.71 16.9-5.812-.642-11.42-1.67-17.125-2.937-17.096-3.688-33.953-5.243-51.437-5.188l-3.71-.012c-10.17.011-19.953.119-29.728 3.137-3.133.589-6.283 1.044-9.437 1.5-4.697.682-9.316 1.385-13.91 2.594C155 509 155 509 151 509c-.107-6.602.288-13.001 1-19.562a1821.925 1821.925 0 0 1 1-9.437"/><path fill="#f8f8fb" d="M335 708c3.438 2 3.438 2 6 5 .332 2.71.115 5.257 0 8 3.562.117 7.124.187 10.688.25l3.052.102c6 .154 6 .154 11.295-2.38L368 717c4.293.293 4.293.293 6 2 .879 6.025-.885 9.122-4.414 13.977-3.419 4.362-3.419 4.362-5.586 6.023h-4l-.746 1.676c-3.706 6.87-9.494 12.703-15.192 17.949-3.742 3.627-4.734 5.926-5.433 10.98-2.16 8.225-9.489 15.192-16.629 19.395-4.462 2.532-7.743 4.02-12.937 3.938C306 792 306 792 304 789c-.846-7.192 1.562-11.87 5.871-17.402 5.218-6.086 5.218-6.086 8.82-8.11 2.428-1.228 2.428-1.228 2.934-3.297.387-2.262.583-4.445.691-6.738l.127-2.558.12-2.645.13-2.691q.159-3.28.307-6.559l-2.25-.25c-3.39-.924-4.656-1.942-6.75-4.75-1.029-5.43-.748-10.476 1.688-15.437C326.319 706.782 326.319 706.782 335 708"/><path fill="#313b93" d="M239.98 779.285c4.275 3.63 6.524 7.069 7.563 12.613.363 5.44-.016 9.274-3.48 13.602-3.87 3.761-7.984 5.807-13.063 7.5l-3.562 1.25c-11.256 2.449-22.43 1.633-32.438-4.25-3-2.5-3-2.5-5-5l-2.312-2.312c-2.253-3.589-2.325-6.618-1.688-10.688 2.933-8.954 7.744-13.19 15.598-17.8 12.03-6.007 27.937-2.397 38.382 5.085"/><path fill="#f8f9fb" d="m278 466 3 1v5l-2.497.104c-27.945 1.238-27.945 1.238-54.827 8.56-6.346 2.306-11.22 1.068-17.301-1.539-13.101-5.612-27.941-6.115-42-6.687l-3.043-.131q-3.666-.157-7.332-.307v-5c37.337-17.762 85.992-13.854 124-1"/><path fill="#f7f7fa" d="M1021.219 624.543c4.708 3.838 7.94 8.116 10.781 13.457l1.133 1.988C1034 642 1034 642 1034 646h-62c1.71-10.258 5.608-16.864 14-23 10.354-7.224 25.21-5.417 35.219 1.543"/><path fill="#2e3992" d="M110 507c2.938 1.938 2.938 1.938 5 5 1.253 8.081-3.745 16.49-8.28 22.774C99.76 543.844 91.689 552.378 81 557c-3.5.438-3.5.438-7 0-3.202-2.627-3.892-4.45-4.687-8.5.75-12.488 12.588-24.918 21.406-32.988 11.864-9.774 11.864-9.774 19.281-8.512"/><path fill="#2d3791" d="M328.77 507.602c11.53 2.06 21.96 14.366 28.351 23.488 4.491 6.956 7.432 12.361 7.445 20.781C364 554 364 554 362.16 555.75c-3.36 1.944-5.307 1.81-9.16 1.25-14.633-6.493-25.585-19.63-32-34-.92-2.76-1.193-4.634-1.25-7.5l-.078-2.344C320 511 320 511 321.277 509.242c2.378-1.715 4.63-1.606 7.493-1.64"/><path fill="#f7f7fa" d="M61 696c16.031-.776 29.241 6.972 41.032 17.24 5.515 5.017 9.85 10.533 13.968 16.76l1.703 2.484c7.587 11.726 10.504 24.165 10.36 37.953l-.014 2.506q-.02 3.03-.049 6.057c-7.75-.875-7.75-.875-10-2-.185-2.182-.27-4.373-.312-6.562-.846-18.735-9.66-36.072-23.29-48.883C84.126 712.787 73.89 709.076 61 706z"/><path fill="#f9fafc" d="M229 783c2.885 1.92 5.42 3.842 7 7 .67 4.792.535 8.085-1.937 12.313-4.812 4.838-10.782 6.894-17.5 7.312-6.138-.233-10.937-2.647-15.563-6.625-2.927-4.2-3.873-6.85-3-12 7.297-11.689 19.04-13.605 31-8"/><path fill="#f7f7fa" d="M64 716c13.941 2.473 24.668 9.621 33.176 20.879A121 121 0 0 1 102 745l1.238 2.188c4.578 8.522 5.048 16.284 4.762 25.812-6.625-.75-6.625-.75-10-3-.555-1.96-.555-1.96-.875-4.375-2.427-13.493-9.104-24.533-20.25-32.625-2.898-1.899-5.724-3.462-8.937-4.75L65 727c-1.283-3.85-1.066-6.947-1-11"/><path fill="#2d3891" d="M367 612c8.04 4.02 13.534 11.444 19.063 18.375l1.482 1.839C391 636.636 391 636.636 391 640h-2l-.578 2.031c-2.008 4.192-4.976 7.135-8.172 10.469l-1.844 1.973c-3.65 3.86-7.269 7.08-11.406 10.527z"/><path fill="#2f3992" d="M350 731q2.406.283 4.813.563L358 732c-.806 6.816-5.605 11.064-10 16l-1.389 1.595a220 220 0 0 1-4.236 4.655l-2.602 2.828C337 759 337 759 333.164 758.797L330 758c.228-3.717.465-7.433.73-11.148.15-2.15.29-4.3.383-6.454.227-3.358.962-5.529 2.637-8.46 5.259-3.136 10.372-1.779 16.25-.938"/><path fill="#f9fafc" d="M307.867 539.578c4.504.89 7.827 3.72 10.57 7.297.85 3.208.917 5.824.563 9.125-1.5 2.438-1.5 2.438-4 4-4.137.678-6.466.964-10.04-1.281-5.776-4.85-5.776-4.85-6.163-8.778l-.047-2.379-.078-2.37c.328-2.192.328-2.192 1.61-3.946 2.406-1.745 4.675-1.775 7.585-1.668"/><path fill="#f1f1f7" d="M70 739c2.875-.235 4.544-.268 7.063 1.215 5.156 4.584 10.232 9.792 11.238 16.914.011 1.933.011 1.933-.301 4.871-3.26.373-4.66.233-7.406-1.652-2.788-2.524-4.79-5.055-6.906-8.16l-2.114-3.02C69.757 745.511 69.702 743.031 70 739"/><path fill="#f0f0f7" d="M290.875 554.563C294 555 294 555 296.438 557.25 298 560 298 560 297.875 562.188 297 564 297 564 295 566c-2.937.375-2.937.375-6 0-2.39-2.15-2.933-3.438-3.312-6.625.48-3.65 1.627-4.27 5.187-4.812"/><path fill="#454f9f" d="m510 571 2 1-16 16c0-4.044 1.48-5.001 4.188-7.937l2.355-2.59c2.36-2.375 4.802-4.44 7.457-6.473"/><path fill="#6069ae" d="m367 612 4 2-3 1v13h-1z"/><path fill="#5d65ac" d="M367 650h1v11l3 1-4 3z"/></svg>