<?xml version="1.0" encoding="UTF-8"?>
<svg version="1.1" xmlns="http://www.w3.org/2000/svg" width="1080" height="1350">
<path d="M0 0 C356.4 0 712.8 0 1080 0 C1080 445.5 1080 891 1080 1350 C723.6 1350 367.2 1350 0 1350 C0 904.5 0 459 0 0 Z " fill="#FEFEFE" transform="translate(0,0)"/>
<path d="M0 0 C1.27359375 0.17144531 2.5471875 0.34289062 3.859375 0.51953125 C21.8493816 3.4121153 39.90362889 9.48912867 56 18 C57.04414062 18.53681396 57.04414062 18.53681396 58.109375 19.08447266 C69.60095295 25.01860698 79.93453761 31.89163679 90 40 C90.58120605 40.4655127 91.16241211 40.93102539 91.76123047 41.41064453 C129.99872504 72.26147492 155.92910829 117.36391207 161.58325195 166.39306641 C162.34534345 173.96408187 162.3341961 181.56023236 162.31567383 189.16259766 C162.31251133 191.8653191 162.33609091 194.56694367 162.36132812 197.26953125 C162.42111077 213.82452306 160.05382427 229.19190996 155 245 C154.66911377 246.05985107 154.66911377 246.05985107 154.33154297 247.14111328 C151.20675108 257.12111871 147.64124738 266.60699934 143 276 C142.57460938 276.93457031 142.14921875 277.86914062 141.7109375 278.83203125 C135.23756681 292.6683879 126.07823202 305.56641954 116 317 C115.14921875 317.97195313 114.2984375 318.94390625 113.421875 319.9453125 C94.7753346 340.93951161 71.94078328 357.50501088 45.95629883 368.17260742 C43.8595318 369.0594093 41.80333146 370.01840688 39.73828125 370.9765625 C34.48349605 373.31905036 29.08093413 374.9606062 23.5625 376.5625 C22.60923828 376.85318359 21.65597656 377.14386719 20.67382812 377.44335938 C3.84668017 382.36918461 -12.59824017 383.57652006 -30.0625 383.5 C-31.0953714 383.49890228 -32.1282428 383.49780457 -33.19241333 383.49667358 C-49.00499595 383.44847149 -63.7435102 382.46768129 -79 378 C-80.48034316 377.59979557 -81.96080587 377.20003303 -83.44140625 376.80078125 C-103.93902993 371.02193895 -123.73741786 361.43749134 -141 349 C-142.02222656 348.26394531 -143.04445313 347.52789063 -144.09765625 346.76953125 C-167.45971388 329.54429775 -186.59361732 307.38571111 -200.08886719 281.69726562 C-200.89449584 280.196534 -201.7595458 278.72803335 -202.6328125 277.265625 C-207.43996183 269.1614256 -210.25483681 260.36040595 -213.18603516 251.45117188 C-213.91549597 249.25447525 -214.67559854 247.07205094 -215.44921875 244.890625 C-221.51444731 227.34380183 -222.56395025 209.05311309 -222.4375 190.625 C-222.43479095 189.69043976 -222.43208191 188.75587952 -222.42929077 187.79299927 C-222.3666929 173.51383065 -221.52474861 159.89182794 -218 146 C-217.64542046 144.45712608 -217.29124863 142.91415839 -216.9375 141.37109375 C-208.82889223 107.92038382 -189.49803893 78.6073884 -166 54 C-165.39800781 53.34515625 -164.79601562 52.6903125 -164.17578125 52.015625 C-158.96134372 46.49909159 -152.8543153 41.96482115 -146.82324219 37.38769531 C-145.66487113 36.50604278 -144.51126946 35.61806073 -143.36425781 34.72167969 C-103.12313125 3.31214569 -49.79394673 -6.99593686 0 0 Z " fill="#2B3690" transform="translate(247,447)"/>
<path d="M0 0 C4.57041647 1.24647722 6.95376784 3.76420605 10.12109375 7.08203125 C11.96233391 8.96155083 13.87379724 10.66820878 15.875 12.375 C18.8846753 14.96634205 21.71088616 17.67254783 24.5 20.5 C27.88241399 23.9288279 31.38070442 27.12048518 35.03515625 30.25390625 C37.81424514 32.7235936 40.38860496 35.37903322 42.99609375 38.02734375 C45.58246151 40.57337829 48.3153528 42.92021557 51.06640625 45.28515625 C52.95494597 46.96004299 54.73155648 48.69947587 56.5 50.5 C59.56453036 53.61339531 62.76301201 56.51617048 66.0859375 59.3515625 C67.30418298 60.40074534 68.50020914 61.47672515 69.6640625 62.5859375 C71.89173905 64.6536783 73.34996838 65.94999757 76.4375 66.1875 C83.57731448 62.87880548 87.48903251 57.23897558 91.125 50.5 C99.19973199 35.82101438 99.19973199 35.82101438 105 34 C107.578125 33.8046875 107.578125 33.8046875 110.25 33.875 C111.58804688 33.90207031 111.58804688 33.90207031 112.953125 33.9296875 C113.62859375 33.95289063 114.3040625 33.97609375 115 34 C114.88406473 36.45904817 114.75739723 38.91682468 114.625 41.375 C114.5940625 42.05433594 114.563125 42.73367188 114.53125 43.43359375 C114.31246362 47.33528428 113.83609083 51.03945692 113.01953125 54.86328125 C111.89805713 60.16331504 111.45214242 65.41630241 111.0625 70.8125 C108.82817615 98.31941015 106.07331635 131.67461677 83.66015625 151.01953125 C77.86690758 155.36675576 71.87396248 157.85442887 65 160 C63.59041016 160.53947266 63.59041016 160.53947266 62.15234375 161.08984375 C48.15540857 165.13109021 31.11012093 161.0396487 18.4375 154.72265625 C3.25037902 146.15617082 -7.16698042 132.03440067 -17 118 C-17.45084961 117.3591748 -17.90169922 116.71834961 -18.36621094 116.05810547 C-19.85430277 113.93868698 -21.33471231 111.81411403 -22.8125 109.6875 C-23.28099365 109.01750977 -23.7494873 108.34751953 -24.23217773 107.65722656 C-31.44609271 97.19320085 -31.44609271 97.19320085 -31.1875 90.125 C-31.14689453 88.67480469 -31.14689453 88.67480469 -31.10546875 87.1953125 C-31.07066406 86.47085938 -31.03585938 85.74640625 -31 85 C-29.02 84.01 -29.02 84.01 -27 83 C-18.89705504 90.38342116 -10.98671184 97.81425921 -3.68261719 105.9987793 C-1.16230011 108.89607129 -1.16230011 108.89607129 2 111 C1.3294519 105.06085965 0.17133736 101.74091415 -3.9296875 97.34375 C-4.73881592 96.47508301 -5.54794434 95.60641602 -6.3815918 94.71142578 C-11.63869352 89.26756828 -17.03345745 83.96705854 -22.44726562 78.6796875 C-36.78944377 64.51457328 -36.78944377 64.51457328 -37.1328125 57.15234375 C-37.13023437 56.09144531 -37.12765625 55.03054688 -37.125 53.9375 C-37.12757813 52.87402344 -37.13015625 51.81054688 -37.1328125 50.71484375 C-37 48 -37 48 -36 46 C-32.69498662 45.61842652 -31.35097787 45.74750206 -28.60546875 47.72265625 C-27.80753906 48.49480469 -27.00960937 49.26695312 -26.1875 50.0625 C-23.22517995 52.88951016 -20.25292475 55.67235841 -17.16015625 58.35546875 C-13.09605975 61.89073156 -9.16369038 65.54979248 -5.25 69.25 C1.44822027 75.55796379 8.19830093 81.8037552 15 88 C15.06830852 84.02681541 14.99643787 80.43460609 12.67529297 77.09277344 C10.84001109 75.24125013 8.93360444 73.55193215 6.9375 71.875 C5.47614892 70.5772885 4.01522376 69.27909724 2.5546875 67.98046875 C1.80155273 67.32481934 1.04841797 66.66916992 0.27246094 65.99365234 C-3.36770514 62.80009882 -6.90514516 59.4993725 -10.4375 56.1875 C-11.10418701 55.56359375 -11.77087402 54.9396875 -12.45776367 54.296875 C-28.46093663 39.21623083 -28.46093663 39.21623083 -29.265625 31.4296875 C-29.26046875 30.58664062 -29.2553125 29.74359375 -29.25 28.875 C-29.25515625 28.02679687 -29.2603125 27.17859375 -29.265625 26.3046875 C-29 24 -29 24 -27 21 C-22.12597483 21.43164799 -19.37828154 23.85036701 -15.875 27 C-14.71824065 28.01132412 -13.56067633 29.02172818 -12.40234375 30.03125 C-11.8285498 30.53527344 -11.25475586 31.03929687 -10.66357422 31.55859375 C-8.3050489 33.60214137 -5.87276624 35.54895941 -3.4375 37.5 C1.03964825 41.13890134 5.28253118 44.96979053 9.50219727 48.89868164 C13.72205059 52.80488328 18.12573444 56.44533917 22.625 60.02734375 C24.8898643 61.90852216 26.95514183 63.88413981 29 66 C29.76608194 60.96574726 28.95009728 58.39913381 26.0625 54.1875 C22.73001316 49.74865434 19.08096643 45.64722537 15.328125 41.5625 C11.35612509 37.19063433 7.617742 32.66826599 4 28 C3.30003906 27.11441406 2.60007813 26.22882812 1.87890625 25.31640625 C-2.58108178 19.13344497 -3.74242449 14.45524336 -3.5390625 6.84765625 C-2.95841312 3.78031278 -2.06857487 2.29534377 0 0 Z " fill="#FCFCFD" transform="translate(182,557)"/>
<path d="M0 0 C7.59 0 15.18 0 23 0 C23 16.5 23 33 23 50 C27.62 47.69 32.24 45.38 37 43 C49.4777769 38.74273776 66.93917183 38.99590712 79.3203125 43.67578125 C83.96880776 45.97292395 87.98643139 48.73018117 92 52 C92.78246094 52.6084375 93.56492187 53.216875 94.37109375 53.84375 C105.08249984 62.65853275 111.78762218 75.38357269 114 89 C115.6452693 107.59708891 114.12201055 125.98844042 102 141 C92.50690646 151.78055557 83.42588406 156.56451098 70 161 C69.01 161.33 68.02 161.66 67 162 C48.84324559 162.98657391 31.93362748 160.92457992 17.625 148.6875 C6.74610829 138.2089515 0.09568174 122.94256705 -0.24050903 107.74804688 C-0.24625401 105.73828445 -0.24110994 103.72847146 -0.22705078 101.71875 C-0.22734283 100.61542831 -0.22763489 99.51210663 -0.22793579 98.37535095 C-0.22654909 94.75015231 -0.21101881 91.12516248 -0.1953125 87.5 C-0.19158003 84.97794711 -0.18873416 82.45589276 -0.18673706 79.93383789 C-0.17989654 73.98772996 -0.16415421 68.04168836 -0.14403808 62.09561443 C-0.12162253 55.32168679 -0.11067148 48.54775545 -0.10064721 41.7737999 C-0.07978621 27.84915139 -0.0431328 13.92459642 0 0 Z " fill="#2C3690" transform="translate(817,557)"/>
<path d="M0 0 C1.43605591 -0.01522705 1.43605591 -0.01522705 2.90112305 -0.03076172 C20.17547187 0.1791619 32.63797987 7.38183978 44.4375 19.4375 C55.11584046 30.96401822 59.11777034 47.848868 58.65234375 63.2265625 C57.48871846 80.61747145 51.70210698 95.45525276 39.0234375 107.78515625 C26.08661296 118.77118979 10.16659158 122.71117985 -6.515625 121.65332031 C-11.81753984 121.09429208 -16.65006565 119.43009385 -21.5625 117.4375 C-22.86767578 116.92896484 -22.86767578 116.92896484 -24.19921875 116.41015625 C-37.4706407 110.55572993 -46.50944702 99.26097704 -51.875 86.0625 C-52.44388049 84.52317633 -53.00654108 82.98153758 -53.5625 81.4375 C-53.90667969 80.66148437 -54.25085938 79.88546875 -54.60546875 79.0859375 C-59.78352981 64.75644609 -57.11989959 45.80558258 -50.96484375 32.2109375 C-44.89079623 20.19819729 -35.76185019 10.34338814 -23.5625 4.4375 C-22.74136719 4.025 -21.92023437 3.6125 -21.07421875 3.1875 C-14.15759725 0.30474024 -7.39124005 0.05558657 0 0 Z " fill="#2C3791" transform="translate(740.5625,597.5625)"/>
<path d="M0 0 C1.34191406 -0.01836914 1.34191406 -0.01836914 2.7109375 -0.03710938 C8.62109284 -0.04999489 13.91988207 0.67130763 19.625 2.1875 C20.47449219 2.38730469 21.32398438 2.58710937 22.19921875 2.79296875 C33.20834751 5.82505782 50.82660166 12.98788401 56.953125 23.45703125 C57.17484375 24.02808594 57.3965625 24.59914063 57.625 25.1875 C55.32328455 27.5539512 52.98582954 29.88002254 50.625 32.1875 C49.93019531 32.86683594 49.23539063 33.54617188 48.51953125 34.24609375 C47.83246094 34.88675781 47.14539063 35.52742187 46.4375 36.1875 C45.80457031 36.785625 45.17164063 37.38375 44.51953125 38 C42.625 39.1875 42.625 39.1875 40.61328125 39.046875 C38.40966884 38.09442956 36.850419 36.96507994 35 35.4375 C21.79790374 25.28016764 6.89105737 22.85104137 -9.375 24.1875 C-13.25452762 24.78973714 -16.72784798 25.74614552 -20.375 27.1875 C-21.21160156 27.51621094 -22.04820312 27.84492187 -22.91015625 28.18359375 C-35.31998596 33.72677889 -43.37402918 43.40364274 -48.9140625 55.56640625 C-55.28778212 72.64014122 -54.77090931 92.74382465 -47.27783203 109.37207031 C-45.12098123 113.70910183 -42.45637825 117.47149546 -39.375 121.1875 C-38.776875 122.074375 -38.17875 122.96125 -37.5625 123.875 C-29.68316137 132.20458655 -17.50275063 138.51966074 -5.95581055 139.36450195 C5.7643779 139.63108712 16.5846009 139.7487271 27.796875 136.0625 C30.625 135.1875 30.625 135.1875 34.625 135.1875 C34.625 122.3175 34.625 109.4475 34.625 96.1875 C25.715 96.1875 16.805 96.1875 7.625 96.1875 C7.625 89.2575 7.625 82.3275 7.625 75.1875 C24.125 75.1875 40.625 75.1875 57.625 75.1875 C57.625 99.6075 57.625 124.0275 57.625 149.1875 C30.79701454 161.56964714 2.38329418 167.32673794 -26.52734375 158.19140625 C-46.61063185 150.56450709 -60.87985041 136.31565846 -70.09375 117.0546875 C-78.9331625 97.27380708 -79.53493632 70.97169619 -72.5625 50.5625 C-71.85519622 48.76209037 -71.12646749 46.96992814 -70.375 45.1875 C-70.03855469 44.37796875 -69.70210938 43.5684375 -69.35546875 42.734375 C-61.2891082 25.0624897 -46.4861546 11.46662413 -28.38671875 4.609375 C-18.85278786 1.2416507 -10.05680086 0.00718343 0 0 Z " fill="#2C3790" transform="translate(556.375,556.8125)"/>
<path d="M0 0 C14.31273858 11.3913426 19.91743849 22.89146162 25.125 40.25 C25.125 47.18 25.125 54.11 25.125 61.25 C-3.255 61.25 -31.635 61.25 -60.875 61.25 C-56.82162426 73.41012723 -52.79687889 82.09228905 -41.69921875 88.5078125 C-32.92965209 92.61271604 -23.19499521 92.66916507 -14.0625 89.625 C-8.89049184 87.49173848 -4.35933449 84.57172925 0.125 81.25 C4.45004836 82.90863505 7.21918825 86.121041 10.375 89.375 C10.92929688 89.93832031 11.48359375 90.50164062 12.0546875 91.08203125 C13.41604485 92.46686028 14.77114859 93.85783204 16.125 95.25 C5.8246129 105.85492029 -8.53655224 113.34354493 -23.53540039 113.63012695 C-40.29908072 113.59434717 -55.07796714 109.56492782 -67.4921875 97.75390625 C-81.78415266 82.7356281 -85.4433304 66.73555752 -85.1484375 46.66015625 C-84.57726192 30.60220518 -78.36751946 17.21710257 -67.3359375 5.5078125 C-49.78464355 -10.59480322 -19.91935488 -13.82381459 0 0 Z " fill="#2C3791" transform="translate(1032.875,605.75)"/>
<path d="M0 0 C1.498806 0.09218081 2.99360853 0.24932108 4.484375 0.4296875 C11.64268361 1.14829111 18.77462248 1.15034181 25.95947266 1.13037109 C28.23216524 1.12504182 30.50465738 1.13033066 32.77734375 1.13671875 C34.27343806 1.13654638 35.76953267 1.13525173 37.265625 1.1328125 C37.99659393 1.13261612 38.72756287 1.13241974 39.48068237 1.13221741 C43.11245605 1.10774903 46.68340197 0.96991247 50.29736328 0.59936523 C50.9785321 0.53300873 51.65970093 0.46665222 52.36151123 0.39828491 C54.21548758 0.20402689 56.06576953 -0.02461629 57.91552734 -0.25561523 C61 0 61 0 63.50878906 2.22119141 C65.32116782 4.73775187 66.71588655 7.18132544 68 10 C68.495 10.99 68.495 10.99 69 12 C75.00911061 12.41924027 80.28878438 11.11816578 86.109375 9.65625 C89 9 89 9 92 9 C92.35178439 27.41004979 91.44505105 45.73921332 89 64 C81.4992735 66.94671398 74.0242363 68.79977768 66.16552734 70.51367188 C64.23354037 70.94755215 62.31292278 71.43136536 60.39453125 71.921875 C34.44062971 77.92212269 3.32905197 75.05789723 -22 67 C-22.96462158 66.69449219 -22.96462158 66.69449219 -23.94873047 66.3828125 C-25.87109375 65.6875 -25.87109375 65.6875 -29 64 C-30.75088681 58.11722692 -30.64187977 51.59118967 -31.0625 45.5 C-31.15192871 44.21456299 -31.24135742 42.92912598 -31.33349609 41.60473633 C-32.04362985 30.72075301 -32.21445732 19.90158051 -32 9 C-28.66666667 9.66666667 -25.33333333 10.33333333 -22 11 C-20.66654541 11.26538574 -20.66654541 11.26538574 -19.30615234 11.53613281 C-17.79784652 11.83951849 -16.29193411 12.15512398 -14.7890625 12.484375 C-12.17628681 12.80507671 -10.51661285 12.83743943 -8 12 C-5.07406626 8.63354464 -3.0633982 4.93642334 -1 1 C-0.67 0.67 -0.34 0.34 0 0 Z " fill="#FBFBFD" transform="translate(187,747)"/>
<path d="M0 0 C10.99319657 4.90924249 16.42646828 14.52826531 20.90625 25.1484375 C27.63869177 43.25870585 27.10995839 66.59530138 22 85 C21.73316406 86.051875 21.46632813 87.10375 21.19140625 88.1875 C18.06187345 99.0921832 11.85752997 107.82585132 2.125 113.75 C-2.91993662 115.76797465 -6.52242542 115.50950848 -11.625 113.75 C-24.59885772 107.02281451 -28.88762936 93.33711192 -33.25 80.25 C-38.09041424 59.27487162 -36.11374971 32.99919876 -25.40234375 14.1953125 C-19.22748133 4.7149998 -11.70243344 -1.74113459 0 0 Z " fill="#FBFBFD" transform="translate(374,581)"/>
<path d="M0 0 C-0.13277344 0.92039062 -0.26554687 1.84078125 -0.40234375 2.7890625 C-2.28371625 16.27452085 -3.18688849 29.65788474 -3.18530273 43.27636719 C-3.18749136 45.36674334 -3.20575372 47.4565911 -3.22460938 49.546875 C-3.26495005 59.17842247 -2.40985158 68.47761953 -1 78 C-0.77944946 79.51762939 -0.77944946 79.51762939 -0.55444336 81.06591797 C-0.04579486 84.48729026 0.49124958 87.9037714 1.03125 91.3203125 C1.15757813 92.13757813 1.28390625 92.95484375 1.4140625 93.796875 C1.5270166 94.51198242 1.6399707 95.22708984 1.75634766 95.96386719 C2 98 2 98 2 102 C-0 102 -0 102 -2.25 100.015625 C-4.35664585 97.84467746 -6.04434269 95.54139882 -7.75 93.046875 C-11.97114215 87.25078905 -16.07439803 81.97499752 -23.29296875 80.18212891 C-30.75656695 79.32986668 -38.19304308 79.55336602 -45.68505859 79.88769531 C-49.93124376 80.03154899 -54.08502926 79.80519233 -58.3125 79.4375 C-60.20827434 79.29090181 -62.10409638 79.14491667 -64 79 C-65.69488771 68.59033944 -66.31715074 58.47567588 -66.26074219 47.93920898 C-66.25002457 45.56793576 -66.26070858 43.19742235 -66.2734375 40.82617188 C-66.28778791 27.63660865 -65.8786061 14.41827006 -61 2 C-40.62468909 -0.04269215 -20.45106817 -0.23179066 0 0 Z " fill="#FCFCFD" transform="translate(101,592)"/>
<path d="M0 0 C8.62523384 4.74068408 14.15537974 11.32520942 17.63671875 20.44921875 C18.00023437 21.361875 18.36375 22.27453125 18.73828125 23.21484375 C21.78216851 34.17283789 20.28878912 47.22044292 15.63671875 57.44921875 C11.51689697 64.71375656 4.36873032 72.44423887 -3.7734375 75.0078125 C-13.22649331 76.61896681 -23.01026244 76.93798727 -31.421875 71.87109375 C-34.06072756 69.938413 -36.23797857 67.93885903 -38.36328125 65.44921875 C-39.22953125 64.50046875 -40.09578125 63.55171875 -40.98828125 62.57421875 C-47.21329981 54.38340486 -47.58136913 46.12463834 -47.67578125 36.26171875 C-47.70478516 35.27107422 -47.73378906 34.28042969 -47.76367188 33.25976562 C-47.84357219 23.88684385 -45.27116774 15.83407686 -39.36328125 8.44921875 C-28.59365516 -2.48536879 -14.551172 -6.05413726 0 0 Z " fill="#FCFDFD" transform="translate(888.36328125,621.55078125)"/>
<path d="M0 0 C8.23111807 6.07213628 13.09784114 13.39120896 15.37109375 23.37109375 C16.81073368 37.51861125 15.68616333 49.77857377 7.62109375 61.80859375 C2.84751094 67.62793568 -3.40798087 71.4041999 -10.62890625 73.37109375 C-19.87672645 74.21479299 -29.28870985 74.11682393 -37.1015625 68.63671875 C-44.88760281 62.10404103 -50.08837548 53.55260165 -51.62890625 43.37109375 C-51.7934262 40.4324523 -51.81397624 37.50133188 -51.81640625 34.55859375 C-51.82865234 33.78966797 -51.84089844 33.02074219 -51.85351562 32.22851562 C-51.88215199 20.91715223 -48.25775925 11.55149746 -40.62890625 3.19921875 C-29.65141954 -6.8348902 -12.53977265 -7.76981455 0 0 Z " fill="#FDFDFE" transform="translate(759.62890625,623.62890625)"/>
<path d="M0 0 C7.92 0 15.84 0 24 0 C24 52.8 24 105.6 24 160 C16.08 160 8.16 160 0 160 C0 107.2 0 54.4 0 0 Z " fill="#2F3A92" transform="translate(641,557)"/>
<path d="M0 0 C3.71395463 3.26103334 4.40147139 4.77390439 4.9375 9.6875 C4.73182244 18.13610148 1.08953717 26.66687009 -2.4375 34.25 C-1.179375 34.64058594 0.07875 35.03117188 1.375 35.43359375 C6.97916248 37.3034779 12.24321428 39.75701099 17.5625 42.3125 C18.51511719 42.75916016 19.46773438 43.20582031 20.44921875 43.66601562 C21.35285156 44.09720703 22.25648438 44.52839844 23.1875 44.97265625 C24.00476563 45.36203369 24.82203125 45.75141113 25.6640625 46.15258789 C27.5625 47.25 27.5625 47.25 28.5625 49.25 C27.34765625 51.6328125 27.34765625 51.6328125 25.625 54.375 C25.05910156 55.28507813 24.49320312 56.19515625 23.91015625 57.1328125 C23.46542969 57.83148437 23.02070313 58.53015625 22.5625 59.25 C15.6046914 57.19321536 9.15867795 53.88781491 2.6171875 50.79492188 C-4.13760158 47.37772419 -4.13760158 47.37772419 -11.4375 46.25 C-14.08580928 48.23601909 -14.08580928 48.23601909 -16.4375 51.125 C-20.51608552 55.5809661 -24.69750099 59.09269445 -29.8125 62.3125 C-30.39515625 62.68165527 -30.9778125 63.05081055 -31.578125 63.43115234 C-38.82685598 67.88436178 -44.92485844 69.43917953 -53.4375 68.25 C-56.41111086 66.03436838 -57.80709793 64.51080415 -59.4375 61.25 C-61.01133238 47.64759159 -55.47278849 35.93844978 -47.4375 25.25 C-37.19723028 12.85640253 -17.94490673 -9.13558888 0 0 Z " fill="#F7F7FB" transform="translate(121.4375,499.75)"/>
<path d="M0 0 C17.04249333 6.07673992 31.05278487 21.79544059 39.47265625 37.421875 C42.98921544 45.37944965 44.80985966 53.73005286 43.47265625 62.421875 C41.47389797 65.99108621 39.40363115 68.18642575 35.47265625 69.421875 C25.06311071 70.42279284 15.75436488 64.67124967 7.89453125 58.34765625 C-5.31135416 46.74187045 -17.80744982 32.29179125 -19.90234375 14.1796875 C-20.08852643 9.42039285 -20.09754526 6.39121756 -17.65234375 2.234375 C-12.67349243 -2.0122923 -6.14882127 -1.40653099 0 0 Z " fill="#F6F7FA" transform="translate(328.52734375,499.578125)"/>
<path d="M0 0 C20.99213812 -0.36936313 39.03961693 1.08580441 58.6875 8.8125 C64.84978974 11.02162274 67.82728593 9.71034682 73.52734375 7.078125 C90.51161154 -0.32733773 110.79372871 -0.53315545 129 0 C129.34103465 3.14504693 129.67137463 6.29113417 130 9.4375 C130.14308594 10.75524414 130.14308594 10.75524414 130.2890625 12.09960938 C130.87468396 17.76758855 131.09274645 23.30188968 131 29 C125.18797852 28.3578974 119.57959123 27.33077275 113.875 26.0625 C96.77917065 22.37539212 79.92211625 20.81958125 62.4375 20.875 C61.21353516 20.87113281 59.98957031 20.86726563 58.72851562 20.86328125 C48.55715502 20.87410761 38.77501033 20.9817512 29 24 C25.86717369 24.58858736 22.7170363 25.04398284 19.5625 25.5 C14.86562339 26.18222789 10.24651644 26.88537302 5.65234375 28.09375 C2 29 2 29 -2 29 C-2.1074664 22.39753314 -1.71245093 15.99878797 -1 9.4375 C-0.90460938 8.52419922 -0.80921875 7.61089844 -0.7109375 6.66992188 C-0.47808125 4.44614468 -0.24104145 2.22290224 0 0 Z " fill="#F9FAFC" transform="translate(153,480)"/>
<path d="M0 0 C3.4375 2 3.4375 2 6 5 C6.33204059 7.71074694 6.1152315 10.25692812 6 13 C9.5622231 13.11654436 13.12395342 13.1873639 16.6875 13.25 C17.69490234 13.28351562 18.70230469 13.31703125 19.74023438 13.3515625 C25.73935274 13.50629948 25.73935274 13.50629948 31.03515625 10.97265625 C31.68355469 10.32167969 32.33195312 9.67070313 33 9 C37.29268293 9.29268293 37.29268293 9.29268293 39 11 C39.87863737 17.02494193 38.11495897 20.12208696 34.5859375 24.9765625 C31.16704289 29.33860045 31.16704289 29.33860045 29 31 C27.68 31 26.36 31 25 31 C24.75378906 31.55300781 24.50757813 32.10601563 24.25390625 32.67578125 C20.54790439 39.54516165 14.76028578 45.37898041 9.0625 50.625 C5.3198177 54.25192924 4.32823361 56.5508368 3.62890625 61.60546875 C1.46873295 69.83022795 -5.85955021 76.79656541 -13 81 C-17.46225759 83.53221538 -20.74320243 85.01994917 -25.9375 84.9375 C-29 84 -29 84 -31 81 C-31.84611658 73.80800911 -29.43759623 69.12969036 -25.12890625 63.59765625 C-19.91091871 57.5116481 -19.91091871 57.5116481 -16.30859375 55.48828125 C-13.88134071 54.25991493 -13.88134071 54.25991493 -13.37548828 52.19116211 C-12.98783245 49.92899626 -12.79202046 47.74557534 -12.68359375 45.453125 C-12.64169922 44.60878906 -12.59980469 43.76445313 -12.55664062 42.89453125 C-12.51732422 42.02183594 -12.47800781 41.14914062 -12.4375 40.25 C-12.39431641 39.36183594 -12.35113281 38.47367188 -12.30664062 37.55859375 C-12.20086385 35.37254037 -12.09877454 33.18637911 -12 31 C-12.7425 30.9175 -13.485 30.835 -14.25 30.75 C-17.63910128 29.82569965 -18.90616067 28.80764819 -21 26 C-22.02855926 20.56981214 -21.74790917 15.52351869 -19.3125 10.5625 C-8.68097227 -1.21838207 -8.68097227 -1.21838207 0 0 Z " fill="#F8F8FB" transform="translate(335,708)"/>
<path d="M0 0 C4.27445737 3.62956825 6.52383362 7.06874563 7.5625 12.61328125 C7.92554904 18.05216682 7.54613871 21.88672813 4.08203125 26.21484375 C0.21173644 29.97589636 -3.90177331 32.02194527 -8.98046875 33.71484375 C-10.15609375 34.12734375 -11.33171875 34.53984375 -12.54296875 34.96484375 C-23.79832553 37.41361399 -34.97188385 36.59750638 -44.98046875 30.71484375 C-47.98046875 28.21484375 -47.98046875 28.21484375 -49.98046875 25.71484375 C-50.74359375 24.95171875 -51.50671875 24.18859375 -52.29296875 23.40234375 C-54.54592678 19.81429948 -54.61742894 16.78517472 -53.98046875 12.71484375 C-51.04719258 3.76063229 -46.23657414 -0.47533167 -38.3828125 -5.0859375 C-26.35179777 -11.09166355 -10.44563775 -7.48207677 0 0 Z " fill="#313B93" transform="translate(239.98046875,779.28515625)"/>
<path d="M0 0 C0.99 0.33 1.98 0.66 3 1 C3 2.65 3 4.3 3 6 C1.76419189 6.05160278 1.76419189 6.05160278 0.50341797 6.10424805 C-27.44213707 7.34158978 -27.44213707 7.34158978 -54.32421875 14.6640625 C-60.67000718 16.97039581 -65.54483075 15.73222489 -71.625 13.125 C-84.72623624 7.51309974 -99.56634592 7.00998191 -113.625 6.4375 C-114.62917969 6.39431641 -115.63335937 6.35113281 -116.66796875 6.30664062 C-119.11188383 6.20190141 -121.55587617 6.09972744 -124 6 C-124 4.35 -124 2.7 -124 1 C-86.66267748 -16.76168176 -38.00756542 -12.85375522 0 0 Z " fill="#F8F9FB" transform="translate(278,466)"/>
<path d="M0 0 C4.70792441 3.83836374 7.93986818 8.11567394 10.78125 13.45703125 C11.15507813 14.11316406 11.52890625 14.76929688 11.9140625 15.4453125 C12.78125 17.45703125 12.78125 17.45703125 12.78125 21.45703125 C-7.67875 21.45703125 -28.13875 21.45703125 -49.21875 21.45703125 C-47.50905082 11.19883615 -43.61108383 4.59317758 -35.21875 -1.54296875 C-24.86431124 -8.76699579 -10.00810085 -6.95985886 0 0 Z " fill="#F7F7FA" transform="translate(1021.21875,624.54296875)"/>
<path d="M0 0 C2.9375 1.9375 2.9375 1.9375 5 5 C6.25341479 13.08122693 1.25542615 21.48933517 -3.28027344 27.77392578 C-10.2393409 36.84305242 -18.3113942 45.37849217 -29 50 C-32.5 50.4375 -32.5 50.4375 -36 50 C-39.20221774 47.37253929 -39.89202875 45.54967181 -40.6875 41.5 C-39.93773423 29.01171387 -28.09865263 16.58166915 -19.28125 8.51171875 C-7.41652228 -1.26238677 -7.41652228 -1.26238677 0 0 Z " fill="#2E3992" transform="translate(110,507)"/>
<path d="M0 0 C11.5301267 2.05967237 21.9601647 14.36612049 28.3515625 23.48828125 C32.84276439 30.44450872 35.78335989 35.84961931 35.796875 44.26953125 C35.23046875 46.3984375 35.23046875 46.3984375 33.390625 48.1484375 C30.03053055 50.09279595 28.08302949 49.95768019 24.23046875 49.3984375 C9.59712282 42.9056588 -1.3547218 29.76761066 -7.76953125 15.3984375 C-8.68968973 12.63796207 -8.9622037 10.76481481 -9.01953125 7.8984375 C-9.0453125 7.125 -9.07109375 6.3515625 -9.09765625 5.5546875 C-8.76953125 3.3984375 -8.76953125 3.3984375 -7.4921875 1.640625 C-5.1140681 -0.0742094 -2.86280461 0.03428509 0 0 Z " fill="#2D3791" transform="translate(328.76953125,507.6015625)"/>
<path d="M0 0 C16.03123223 -0.77570479 29.24131454 6.97171733 41.03222656 17.23950195 C46.54723898 22.25660973 50.88249252 27.7726953 55 34 C55.56203125 34.81984375 56.1240625 35.6396875 56.703125 36.484375 C64.29009124 48.20968647 67.20694292 60.64875652 67.0625 74.4375 C67.05798828 75.26443359 67.05347656 76.09136719 67.04882812 76.94335938 C67.03715811 78.96227146 67.01922718 80.98114574 67 83 C59.25 82.125 59.25 82.125 57 81 C56.81537705 78.81781731 56.73088001 76.62704907 56.6875 74.4375 C55.84177784 55.70271892 47.02860687 38.36622808 33.3984375 25.5546875 C23.12590711 16.78686579 12.88916827 13.07621483 0 10 C0 6.7 0 3.4 0 0 Z " fill="#F7F7FA" transform="translate(61,696)"/>
<path d="M0 0 C2.88536876 1.91955495 5.42076452 3.84152905 7 7 C7.67085641 11.79183149 7.53504197 15.08525083 5.0625 19.3125 C0.25115718 24.15079712 -5.71914171 26.20688435 -12.4375 26.625 C-18.57505658 26.39192823 -23.37431491 23.97843438 -28 20 C-30.92664543 15.80032942 -31.87293342 13.15030717 -31 8 C-23.70252961 -3.6888685 -11.9594779 -5.60462617 0 0 Z " fill="#F9FAFC" transform="translate(229,783)"/>
<path d="M0 0 C13.94101664 2.47340618 24.66774797 9.62141877 33.17578125 20.87890625 C34.90198406 23.53659324 36.48550033 26.21705382 38 29 C38.40863281 29.721875 38.81726563 30.44375 39.23828125 31.1875 C43.81597897 39.71034084 44.28584895 47.47170153 44 57 C37.375 56.25 37.375 56.25 34 54 C33.4453125 52.0390625 33.4453125 52.0390625 33.125 49.625 C30.69823332 36.13217724 24.02058273 25.09199842 12.875 17 C9.97696692 15.10113277 7.15128659 13.5381435 3.9375 12.25 C2.968125 11.8375 1.99875 11.425 1 11 C-0.28317892 7.15046324 -0.06643637 4.05261865 0 0 Z " fill="#F7F7FA" transform="translate(64,716)"/>
<path d="M0 0 C8.03950439 4.01975219 13.53405589 11.44403062 19.0625 18.375 C19.79641968 19.28523926 19.79641968 19.28523926 20.54516602 20.21386719 C24 24.63575808 24 24.63575808 24 28 C23.34 28 22.68 28 22 28 C21.71382813 29.00546875 21.71382813 29.00546875 21.421875 30.03125 C19.41428433 34.22292282 16.44559102 37.16575731 13.25 40.5 C12.6415625 41.15097656 12.033125 41.80195312 11.40625 42.47265625 C7.7561162 46.3333747 4.13727918 49.55226735 0 53 C0 35.51 0 18.02 0 0 Z " fill="#2D3891" transform="translate(367,612)"/>
<path d="M0 0 C1.6040412 0.18857032 3.20818369 0.37628471 4.8125 0.5625 C5.864375 0.706875 6.91625 0.85125 8 1 C7.19383354 7.81577099 2.39491752 12.06441277 -2 17 C-2.45826172 17.52625977 -2.91652344 18.05251953 -3.38867188 18.59472656 C-4.77585539 20.17142128 -6.19336989 21.71365296 -7.625 23.25 C-8.48351562 24.18328125 -9.34203125 25.1165625 -10.2265625 26.078125 C-13 28 -13 28 -16.8359375 27.796875 C-17.88007813 27.53390625 -18.92421875 27.2709375 -20 27 C-19.77249842 23.28252738 -19.53482382 19.566537 -19.26953125 15.8515625 C-19.11910521 13.70199625 -18.98045856 11.5512208 -18.88671875 9.3984375 C-18.6597744 6.03966119 -17.92522793 3.86914888 -16.25 0.9375 C-10.99104645 -2.19764538 -5.87829178 -0.84076529 0 0 Z " fill="#2F3992" transform="translate(350,731)"/>
<path d="M0 0 C4.50343319 0.89078898 7.82730912 3.7190445 10.5703125 7.296875 C11.41961419 10.50534807 11.48649101 13.12087556 11.1328125 16.421875 C9.6328125 18.859375 9.6328125 18.859375 7.1328125 20.421875 C2.99630513 21.09999096 0.66724735 21.38604096 -2.90625 19.140625 C-8.682735 14.29123019 -8.682735 14.29123019 -9.0703125 10.36328125 C-9.08578125 9.57824219 -9.10125 8.79320312 -9.1171875 7.984375 C-9.15585937 6.81068359 -9.15585937 6.81068359 -9.1953125 5.61328125 C-8.8671875 3.421875 -8.8671875 3.421875 -7.5859375 1.66796875 C-5.17914988 -0.07695228 -2.91029399 -0.10739092 0 0 Z " fill="#F9FAFC" transform="translate(307.8671875,539.578125)"/>
<path d="M0 0 C2.87477839 -0.23457393 4.54420429 -0.26847058 7.0625 1.21484375 C12.21893727 5.79949866 17.29460329 11.00725706 18.30078125 18.12890625 C18.3125 20.0625 18.3125 20.0625 18 23 C14.74004592 23.37256618 13.3393896 23.23305487 10.59375 21.34765625 C7.80577305 18.82420121 5.80415104 16.29271875 3.6875 13.1875 C2.64142578 11.69283203 2.64142578 11.69283203 1.57421875 10.16796875 C-0.24304993 6.51088464 -0.2984331 4.03137594 0 0 Z " fill="#F1F1F7" transform="translate(70,739)"/>
<path d="M0 0 C3.125 0.4375 3.125 0.4375 5.5625 2.6875 C7.125 5.4375 7.125 5.4375 7 7.625 C6.125 9.4375 6.125 9.4375 4.125 11.4375 C1.1875 11.8125 1.1875 11.8125 -1.875 11.4375 C-4.2648784 9.28660944 -4.80805893 7.999805 -5.1875 4.8125 C-4.70733685 1.16326003 -3.56011998 0.54175739 0 0 Z " fill="#F0F0F7" transform="translate(290.875,554.5625)"/>
<path d="M0 0 C0.66 0.33 1.32 0.66 2 1 C-3.28 6.28 -8.56 11.56 -14 17 C-14 12.95607032 -12.51908749 11.99868382 -9.8125 9.0625 C-9.03519531 8.20785156 -8.25789063 7.35320313 -7.45703125 6.47265625 C-5.09786332 4.09848566 -2.65532732 2.0327639 0 0 Z " fill="#454F9F" transform="translate(510,571)"/>
<path d="M0 0 C1.98 0.99 1.98 0.99 4 2 C3.01 2.33 2.02 2.66 1 3 C1 7.29 1 11.58 1 16 C0.67 16 0.34 16 0 16 C0 10.72 0 5.44 0 0 Z " fill="#6069AE" transform="translate(367,612)"/>
<path d="M0 0 C0.33 0 0.66 0 1 0 C1 3.63 1 7.26 1 11 C1.99 11.33 2.98 11.66 4 12 C2.68 12.99 1.36 13.98 0 15 C0 10.05 0 5.1 0 0 Z " fill="#5D65AC" transform="translate(367,650)"/>
</svg>
