<?xml version="1.0" encoding="UTF-8"?>
<svg version="1.1" xmlns="http://www.w3.org/2000/svg" width="1080" height="1350">
<path d="M0 0 C356.4 0 712.8 0 1080 0 C1080 445.5 1080 891 1080 1350 C723.6 1350 367.2 1350 0 1350 C0 904.5 0 459 0 0 Z " fill="#FEFEFE" transform="translate(0,0)"/>
<path d="M0 0 C1.71938919 0.90611976 3.40998522 1.86862632 5.0703125 2.87890625 C6.03412842 3.4613208 6.99794434 4.04373535 7.9909668 4.64379883 C9.54231323 5.59355591 9.54231323 5.59355591 11.125 6.5625 C12.80382583 7.58005615 14.48265178 8.5976121 16.16148376 9.61515808 C18.52059367 11.047158 20.87629767 12.48471397 23.2321167 13.92211914 C26.65991967 16.01205529 30.09252846 18.09407567 33.52430725 20.17747498 C34.09016037 20.52101517 34.65601349 20.86455536 35.23901367 21.21850586 C36.09056534 21.73548538 36.09056534 21.73548538 36.95932007 22.26290894 C38.69760784 23.31863889 40.43539956 24.37518134 42.1730957 25.43188477 C54.56651297 32.9657906 67.00696156 40.42099597 79.44970703 47.87304688 C85.04159641 51.22246993 90.63027738 54.57724261 96.21932983 57.93139648 C98.94819667 59.56902525 101.67722815 61.20637957 104.40625 62.84375 C112.01692708 67.41015625 119.62760417 71.9765625 127.23828125 76.54296875 C127.84309326 76.90583984 128.44790527 77.26871094 129.07104492 77.64257812 C130.23402552 78.3403991 131.39694851 79.0383161 132.55981445 79.73632812 C135.82756618 81.69761359 139.09672113 83.65652539 142.3671875 85.61328125 C150.85192977 90.69307214 159.32002942 95.79859129 167.76660156 100.94165039 C168.92771701 101.64862878 170.08884999 102.35557837 171.25 103.0625 C172.11860657 103.59132278 172.11860657 103.59132278 173.00476074 104.13082886 C184.25286711 110.97459591 195.56521112 117.70778298 206.90136719 124.40454102 C213.9304564 128.56022389 220.91655097 132.77466567 227.86254883 137.06860352 C233.00700805 140.23550235 238.19110804 143.33571977 243.375 146.4375 C245.57683472 147.75649071 247.7786577 149.07550102 249.98046875 150.39453125 C251.02380371 151.01924316 252.06713867 151.64395508 253.14208984 152.28759766 C255.48809103 153.69327443 257.83272336 155.10114458 260.17578125 156.51171875 C260.72970362 156.84316737 261.28362598 157.17461599 261.85433388 157.51610851 C263.53366887 158.53194677 265.19560384 159.57640664 266.8555603 160.62361145 C269.95688481 162.49812503 273.11593732 163.93671067 276.45108032 165.34965515 C291.15784059 172.02744453 291.15784059 172.02744453 294.23317719 178.65930557 C296.10923074 186.40819904 295.52549233 194.3098812 295.1484375 202.20703125 C295.10734767 204.74422145 295.07605828 207.28158754 295.05410767 209.8190155 C294.97904041 215.78669606 294.8062333 221.74631111 294.58441889 227.70986336 C294.33718132 234.50681558 294.21724285 241.30423618 294.10711932 248.10457575 C293.87806511 262.07561191 293.4752504 276.03528201 293 290 C283.76 290 274.52 290 265 290 C265.11110107 287.05449219 265.22220215 284.10898437 265.33666992 281.07421875 C265.68564345 271.28884897 265.88294649 261.50451482 266.00777721 251.71385193 C266.08799046 245.78163499 266.21744425 239.85945518 266.46411133 233.93164062 C268.87413922 209.04066547 268.87413922 209.04066547 261.47894287 186.37350464 C255.60059796 180.54754125 247.98381369 177.69687255 240.2550354 175.13641357 C235.99697569 173.64981934 232.49054897 171.53125787 228.765625 169.03515625 C227.65703125 168.36033203 226.5484375 167.68550781 225.40625 166.99023438 C224.3646875 166.35408203 223.323125 165.71792969 222.25 165.0625 C208.92446945 156.93929447 195.54875714 148.90700118 182.11669922 140.96142578 C161.2250088 128.60211171 161.2250088 128.60211171 151.58984375 122.49316406 C145.39068539 118.57808424 139.06879331 114.87549098 132.75 111.15771484 C116.3110243 101.48327673 99.99063103 91.61267203 83.69961548 81.69165039 C74.02954541 75.80562348 64.30576508 70.013899 54.5625 64.25 C45.57479248 58.93290624 36.61518849 53.5826531 27.75 48.0625 C26.93474854 47.555979 26.11949707 47.04945801 25.27954102 46.52758789 C21.93901894 44.45142967 18.59909552 42.37438125 15.26367188 40.29003906 C12.5157945 38.57810573 9.75901974 36.88140163 7 35.1875 C6.16823242 34.66486572 5.33646484 34.14223145 4.47949219 33.60375977 C3.31401855 32.89304321 3.31401855 32.89304321 2.125 32.16796875 C1.10792969 31.53797974 1.10792969 31.53797974 0.0703125 30.89526367 C-2.46521454 29.79882763 -4.26135274 29.74477962 -7 30 C-9.99343137 31.45178013 -9.99343137 31.45178013 -13.1875 33.5625 C-14.52048794 34.39327425 -15.85526961 35.22117433 -17.19140625 36.046875 C-17.94309082 36.51287109 -18.69477539 36.97886719 -19.46923828 37.45898438 C-24.46708612 40.50224267 -29.55178592 43.39728937 -34.625 46.3125 C-36.30674316 47.28086792 -36.30674316 47.28086792 -38.02246094 48.26879883 C-45.84846659 52.772072 -53.68645934 57.25421081 -61.52905273 61.72851562 C-67.86576446 65.34567891 -74.18550718 68.99125956 -80.49707031 72.65209961 C-86.11617227 75.91106336 -91.74197214 79.15822582 -97.37036133 82.40112305 C-106.92855083 87.90867185 -116.47552564 93.43433241 -126 99 C-142.9583957 108.90781931 -159.97585377 118.71247907 -177.03466797 128.44628906 C-193.38512836 137.78142372 -209.6786313 147.21469814 -225.93383789 156.71459961 C-234.57812545 161.76298917 -243.24651803 166.76893125 -251.921875 171.76367188 C-253.88508581 172.89427096 -255.84202969 174.03586506 -257.79073215 175.19129127 C-261 177 -261 177 -264.161731 178.42303187 C-270.35843001 181.28998773 -270.35843001 181.28998773 -274.09752035 186.69374454 C-274.51876518 190.08970613 -274.54291077 193.30352999 -274.4430542 196.72447205 C-274.4533073 198.00860491 -274.4635604 199.29273777 -274.47412419 200.61578375 C-274.50090117 204.17029813 -274.4530659 207.72045613 -274.39278746 211.27441514 C-274.3408847 215.1100425 -274.35850763 218.94543122 -274.36761475 222.78131104 C-274.37390233 229.42360959 -274.33630774 236.06449196 -274.26876068 242.70643425 C-274.17116568 252.30926788 -274.13997686 261.91141788 -274.12490478 271.51469368 C-274.09865162 287.09555171 -274.01882233 302.67565514 -273.90527344 318.25610352 C-273.7950972 333.38952869 -273.71017041 348.52274879 -273.65917969 363.65649414 C-273.65602701 364.58958469 -273.65287432 365.52267524 -273.64962611 366.48404127 C-273.63396547 371.16515984 -273.61880102 375.84627986 -273.60388327 380.52740085 C-273.47951519 419.35212888 -273.26818712 458.17601461 -273 497 C-271.38822876 497.90600952 -271.38822876 497.90600952 -269.74389648 498.83032227 C-268.30712482 499.63817632 -266.87035747 500.44603806 -265.43359375 501.25390625 C-264.72859741 501.65017212 -264.02360107 502.04643799 -263.29724121 502.45471191 C-253.18723013 508.13995569 -243.13267965 513.90804372 -233.14501953 519.80541992 C-225.48763332 524.31813917 -217.78278961 528.74792719 -210.08032227 533.18310547 C-202.6009792 537.49239226 -195.13887751 541.83006139 -187.6875 546.1875 C-177.68925724 552.03109512 -167.64930563 557.79811504 -157.58544922 563.52783203 C-145.0799663 570.64851777 -132.59335257 577.80024053 -120.14453125 585.01953125 C-114.10197185 588.52275851 -108.05075977 592.01096204 -102 595.5 C-90.58210282 602.08489419 -79.17302831 608.68486237 -67.76855469 615.29296875 C-60.07946107 619.7478938 -52.38868064 624.19984525 -44.69140625 628.640625 C-43.59417236 629.27395752 -42.49693848 629.90729004 -41.36645508 630.55981445 C-39.13216492 631.84750057 -36.89633573 633.13252019 -34.65893555 634.41479492 C-29.50759832 637.37142998 -24.38446768 640.35589222 -19.328125 643.47265625 C-18.46445312 643.99730469 -17.60078125 644.52195312 -16.7109375 645.0625 C-15.11720311 646.03391905 -13.53304563 647.02130186 -11.9609375 648.02734375 C-7.75518496 650.60364987 -7.75518496 650.60364987 -2.9375 650.5390625 C0.52357497 648.72568013 3.91433914 646.84497132 7.25 644.8125 C8.76618915 643.90501595 10.28316888 642.99885194 11.80078125 642.09375 C13.04335693 641.35125 13.04335693 641.35125 14.31103516 640.59375 C19.32667811 637.62097742 24.38416271 634.72057036 29.4375 631.8125 C31.67969606 630.5208482 33.92188344 629.22918132 36.1640625 627.9375 C37.85644043 626.96296875 37.85644043 626.96296875 39.58300781 625.96875 C42.96020003 624.02293134 46.33585596 622.07447709 49.7109375 620.125 C60.63684442 613.81459663 71.57239907 607.52218538 82.53173828 601.27001953 C88.86378363 597.6553505 95.17883543 594.01222741 101.48608398 590.35449219 C108.31806081 586.3925792 115.15830895 582.44511114 122 578.5 C132.67320345 572.34458326 143.33934354 566.17711561 154 560 C191.79672908 538.09940075 191.79672908 538.09940075 209.9375 527.75 C216.40596588 524.05905102 222.8668125 520.35560329 229.3125 516.625 C230.43954346 515.97325806 230.43954346 515.97325806 231.58935547 515.30834961 C236.22202595 512.62446525 240.84092466 509.91813932 245.453125 507.19921875 C246.54971436 506.55452637 247.64630371 505.90983398 248.77612305 505.24560547 C250.93862067 503.97358584 253.09900428 502.69796426 255.25708008 501.41845703 C256.23572021 500.84337402 257.21436035 500.26829102 258.22265625 499.67578125 C259.09672119 499.15927002 259.97078613 498.64275879 260.87133789 498.1105957 C263 497 263 497 265 497 C265 490.73 265 484.46 265 478 C269.29170795 477.97313952 273.58324945 477.95322893 277.875 477.9375 C279.09832031 477.92912109 280.32164062 477.92074219 281.58203125 477.91210938 C283.33193359 477.90727539 283.33193359 477.90727539 285.1171875 477.90234375 C286.73536377 477.89448853 286.73536377 477.89448853 288.38623047 477.88647461 C291 478 291 478 293 479 C293 489.89 293 500.78 293 512 C289.37 513.98 285.74 515.96 282 518 C271.76517368 523.65862649 261.65156486 529.51573427 251.55664062 535.41943359 C235.41470323 544.8573817 219.20595156 554.17934338 202.96533203 563.44628906 C187.59866854 572.21973454 172.27850523 581.07397034 157 590 C139.09083791 600.46186066 121.11300954 610.80265668 103.0958252 621.0770874 C94.06077619 626.23104928 85.06491952 631.44903412 76.08862305 636.70458984 C68.31633979 641.24846553 60.50802791 645.72743115 52.6875 650.1875 C40.89344097 656.91515927 40.89344097 656.91515927 29.125 663.6875 C28.3935376 664.10829834 27.6620752 664.52909668 26.90844727 664.96264648 C22.60868858 667.44740315 18.35647962 669.99814281 14.125 672.59765625 C13.12710449 673.20456299 12.12920898 673.81146973 11.10107422 674.43676758 C9.15761627 675.62085799 7.22133687 676.81683474 5.29345703 678.02612305 C4.41544434 678.55890869 3.53743164 679.09169434 2.6328125 679.640625 C1.85824707 680.12047852 1.08368164 680.60033203 0.28564453 681.09472656 C-2.60925665 682.2413078 -4.05746209 681.92090429 -7 681 C-8.88671875 680.15893555 -8.88671875 680.15893555 -10.6875 679.13671875 C-11.37513428 678.7507251 -12.06276855 678.36473145 -12.77124023 677.96704102 C-13.50673096 677.54479248 -14.24222168 677.12254395 -15 676.6875 C-16.17381226 676.02415649 -16.17381226 676.02415649 -17.37133789 675.34741211 C-19.91829616 673.90531595 -22.45928602 672.45306485 -25 671 C-26.72767022 670.01788718 -28.45553578 669.03611791 -30.18359375 668.0546875 C-40.10223394 662.41175417 -49.98398509 656.70538046 -59.85546875 650.98046875 C-65.89802811 647.47724151 -71.94923336 643.98902599 -78 640.5 C-86.25421926 635.73985062 -94.50510843 630.97408293 -102.74926758 626.1965332 C-107.19830499 623.61923466 -111.65051609 621.04753093 -116.10546875 618.48046875 C-126.71166241 612.36873521 -137.30924932 606.2439315 -147.875 600.0625 C-157.85424528 594.2264606 -167.8827027 588.47925304 -177.92480469 582.75244141 C-186.00847264 578.14203671 -194.07245311 573.49935026 -202.12109375 568.828125 C-207.96902061 565.43483828 -213.82922004 562.0628686 -219.6875 558.6875 C-228.20492436 553.77941744 -236.70374891 548.8410305 -245.1875 543.875 C-253.77998824 538.84669363 -262.41410977 533.89958775 -271.11010742 529.05224609 C-272.85644914 528.07365369 -274.58280838 527.05876022 -276.29021358 526.01371479 C-279.20578482 524.31977966 -282.18344808 523.14676578 -285.33395481 521.95264721 C-292.61988059 518.88719319 -300.1171648 515.56344472 -303.28608966 507.88289285 C-305.24232577 498.94831078 -304.98721249 489.82076517 -304.80264747 480.72403491 C-304.74222423 476.5564155 -304.8093811 472.39049015 -304.8598175 468.2230072 C-304.93815295 460.07365651 -304.89885433 451.92898865 -304.81761431 443.77982882 C-304.72658438 434.28305105 -304.7460621 424.78743908 -304.76800621 415.29036769 C-304.8027324 398.34278513 -304.72707108 381.39745019 -304.59350586 364.45043945 C-304.46401264 348.01887279 -304.42867866 331.59041233 -304.4909668 315.15844727 C-304.5587613 297.24563055 -304.57253729 279.33426633 -304.49425179 261.42144126 C-304.48598584 259.51056698 -304.47775531 257.59969256 -304.46956062 255.68881798 C-304.46341419 254.27869235 -304.46341419 254.27869235 -304.45714359 252.84007934 C-304.43173726 246.22547169 -304.44384462 239.61154225 -304.46984673 232.99695778 C-304.50013359 224.93385197 -304.46849441 216.87373427 -304.35881376 208.81127361 C-304.30429114 204.69921849 -304.27646282 200.59175303 -304.32257462 196.47948837 C-304.56465071 172.47148903 -304.56465071 172.47148903 -300.32794499 166.7367208 C-296.37791716 163.22682528 -292.07045141 161.30826923 -287.07627213 159.71778429 C-283.95372097 158.63829277 -281.36996433 157.00901147 -278.56640625 155.26953125 C-276.56552298 154.11646044 -274.56421553 152.96412541 -272.5625 151.8125 C-270.92015381 150.86612671 -270.92015381 150.86612671 -269.24462891 149.90063477 C-265.83013293 147.93309543 -262.41511211 145.96646966 -259 144 C-254.62449212 141.48004705 -250.24945536 138.95927962 -245.875 136.4375 C-244.80024414 135.8180249 -243.72548828 135.1985498 -242.61816406 134.56030273 C-235.33427453 130.35784762 -228.07006633 126.12271183 -220.8125 121.875 C-211.97021965 116.70107011 -203.07332655 111.6321588 -194.14501953 106.60839844 C-187.94998049 103.11736561 -181.80020659 99.56028695 -175.68164062 95.93725586 C-165.97576495 90.19689113 -156.18885263 84.5957339 -146.41699219 78.96875 C-143.03979997 77.02293134 -139.66414404 75.07447709 -136.2890625 73.125 C-125.36315558 66.81459663 -114.42760093 60.52218538 -103.46826172 54.27001953 C-97.13621637 50.6553505 -90.82116457 47.01222741 -84.51391602 43.35449219 C-77.68193923 39.39257922 -70.84169882 35.44509761 -64 31.5 C-53.86301186 25.65470911 -53.86301186 25.65470911 -43.73510742 19.79370117 C-42.25504247 18.93702568 -40.77345048 18.08298257 -39.2902832 17.23168945 C-35.17387613 14.864346 -31.08774012 12.45563224 -27.02963257 9.98934937 C-24.6735307 8.56151853 -22.30781561 7.15007927 -19.94091797 5.74023438 C-18.22012555 4.70708805 -16.51223474 3.65254975 -14.8046875 2.59765625 C-13.74894531 1.97117187 -12.69320313 1.3446875 -11.60546875 0.69921875 C-10.66856201 0.13033936 -9.73165527 -0.43854004 -8.76635742 -1.0246582 C-5.08123218 -2.32393235 -3.50975936 -1.59558149 0 0 Z " fill="#4893CF" transform="translate(464,335)"/>
<path d="M0 0 C101.80665281 0 101.80665281 0 119.0390625 15.87890625 C126.73654162 23.98582575 129.34371321 33.84990258 129.2109375 44.77734375 C128.49137675 55.77063304 124.09227119 65.5937444 115.875 73 C113.89589243 74.65323042 112.14011794 75.93169878 109.8203125 77.0625 C107.82129626 77.86540618 107.82129626 77.86540618 107 80 C107.84691406 80.185625 107.84691406 80.185625 108.7109375 80.375 C119.10552369 83.21311227 128.58006029 90.31096872 134 99.625 C139.36029077 110.66757781 139.38029212 122.50885668 136.0390625 134.25 C132.020193 144.88640649 123.98066426 152.53204136 114.03515625 157.6484375 C103.19348653 162.47625954 92.57713337 164.16542722 80.83007812 164.11352539 C79.93701714 164.11364593 79.04395615 164.11376646 78.1238327 164.11389065 C75.2596123 164.11314979 72.39545862 164.10555959 69.53125 164.09765625 C67.75227896 164.09618426 65.97330749 164.09516514 64.19433594 164.09460449 C57.62955065 164.08938135 51.06477465 164.07542008 44.5 164.0625 C29.815 164.041875 15.13 164.02125 0 164 C0 109.88 0 55.76 0 0 Z " fill="#4893CF" transform="translate(674,637)"/>
<path d="M0 0 C104.75864883 0 104.75864883 0 122.37890625 16.18359375 C132.55323241 27.58374233 136.36971673 40.53908099 136.21484375 55.52734375 C135.35585614 69.41170714 130.31568825 81.56299048 120 91 C113.22455087 96.10986073 105.79902613 99.72652095 98 103 C98.32572998 103.45101074 98.65145996 103.90202148 98.98706055 104.36669922 C99.44894775 105.00623535 99.91083496 105.64577148 100.38671875 106.3046875 C100.90621094 107.02390381 101.42570312 107.74312012 101.9609375 108.48413086 C103.12921414 110.10190986 104.29717398 111.71991769 105.46484375 113.33813477 C108.40298391 117.4090755 111.34485328 121.47710853 114.30078125 125.53515625 C123.48658591 138.16389105 132.34559093 151.00161204 141 164 C110.15336893 166.67211723 110.15336893 166.67211723 102.31054688 162.60546875 C98.31767141 158.93633994 96.21274938 154.32815456 94.11328125 149.39892578 C92.25893449 145.40313383 89.61938237 142.02138036 87 138.5 C86.00778689 137.10304479 85.01950968 135.70328581 84.03515625 134.30078125 C83.54160645 133.60162598 83.04805664 132.9024707 82.53955078 132.18212891 C80.919889 129.88645225 79.30162803 127.58979275 77.68359375 125.29296875 C77.14025391 124.52210938 76.59691406 123.75125 76.03710938 122.95703125 C74.99755945 121.48211426 73.95847097 120.00687188 72.91992188 118.53125 C72.21512695 117.53158203 72.21512695 117.53158203 71.49609375 116.51171875 C71.06151855 115.89474121 70.62694336 115.27776367 70.17919922 114.64208984 C69.2051977 113.28574736 68.18805224 111.9605 67.16015625 110.64453125 C66 109 66 109 66 107 C54.45 107 42.9 107 31 107 C31 125.81 31 144.62 31 164 C20.77 164 10.54 164 0 164 C0 109.88 0 55.76 0 0 Z " fill="#4893CF" transform="translate(340,637)"/>
<path d="M0 0 C1.8552832 -0.00483398 1.8552832 -0.00483398 3.74804688 -0.00976562 C26.05312658 0.11998365 45.62541452 7.81119204 62.4375 22.3125 C64.31640625 24.62109375 64.31640625 24.62109375 65.4375 26.3125 C64.62925781 27.25351562 63.82101562 28.19453125 62.98828125 29.1640625 C61.90883178 30.42185579 60.82940596 31.67966937 59.75 32.9375 C59.21955078 33.55496094 58.68910156 34.17242188 58.14257812 34.80859375 C54.87524572 38.61714073 51.64060202 42.44976102 48.4375 46.3125 C44.23281824 45.78967617 42.23603066 44.57368857 39.125 41.75 C34.72463004 38.07860699 30.2281554 35.41174464 25.125 32.875 C24.44332764 32.53331787 23.76165527 32.19163574 23.05932617 31.83959961 C15.86554785 28.35816834 9.59838276 28.10455429 1.75 28.0625 C0.80705078 28.041875 -0.13589844 28.02125 -1.10742188 28 C-15.05534666 27.92331038 -26.25723314 33.50616796 -36.39453125 42.92578125 C-45.10811659 52.5185752 -51.00826042 65.27582126 -51.5625 78.3125 C-51.60246094 79.22644531 -51.64242187 80.14039063 -51.68359375 81.08203125 C-52.01237618 96.14800268 -48.42465799 112.45537388 -38.06640625 123.9765625 C-36.90818547 125.09869141 -35.73683367 126.20724478 -34.5625 127.3125 C-34.5625 127.9725 -34.5625 128.6325 -34.5625 129.3125 C-33.9953125 129.58320312 -33.428125 129.85390625 -32.84375 130.1328125 C-30.47914888 131.3556028 -28.30074708 132.74756104 -26.0625 134.1875 C-12.81155889 142.0685262 0.49051254 143.25737603 15.25 139.6875 C25.36083983 136.6499998 33.23782146 131.85456611 41.24609375 125.046875 C43.25138793 123.45979725 45.11131544 122.35106987 47.4375 121.3125 C54.1491188 126.94718283 60.29842974 133.07186424 66.4375 139.3125 C61.4711839 151.20481368 44.77657857 159.548329 33.4375 164.3125 C10.49430908 172.23458834 -14.74475996 171.62328762 -36.875 161.640625 C-57.79204067 151.30371537 -72.30221786 134.84134073 -80.3125 112.875 C-80.7607571 111.36317636 -81.17372556 109.84070142 -81.5625 108.3125 C-81.83964844 107.22839844 -82.11679687 106.14429688 -82.40234375 105.02734375 C-87.53690347 82.52519495 -84.40270409 58.96063853 -72.59765625 38.98828125 C-61.42970907 21.92333483 -46.26441873 9.29734006 -26.5625 3.3125 C-25.29660034 2.92300171 -25.29660034 2.92300171 -24.00512695 2.52563477 C-15.92834905 0.24825924 -8.35919028 -0.1092419 0 0 Z " fill="#4893CF" transform="translate(583.5625,634.6875)"/>
<path d="M0 0 C1.75183594 -0.01836914 1.75183594 -0.01836914 3.5390625 -0.03710938 C10.4930786 -0.04880335 16.8830897 0.47094487 23.625 2.1875 C24.74648438 2.47109375 25.86796875 2.7546875 27.0234375 3.046875 C41.416157 7.353358 54.15523078 14.27325944 64.625 25.1875 C63.03053448 28.98214979 60.606158 31.57198754 57.8125 34.5625 C54.30092704 38.35865774 50.88126073 42.1714451 47.625 46.1875 C43.42031824 45.66467617 41.42353066 44.44868857 38.3125 41.625 C33.91213004 37.95360699 29.4156554 35.28674464 24.3125 32.75 C23.63082764 32.40831787 22.94915527 32.06663574 22.24682617 31.71459961 C15.03388862 28.22389622 8.74477948 27.97947216 0.875 27.9375 C-0.07632813 27.916875 -1.02765625 27.89625 -2.0078125 27.875 C-14.98655989 27.80388358 -27.02009926 33.31553271 -36.53125 42.14453125 C-47.42034016 54.21019683 -53.13315789 70.5142714 -52.5234375 86.6953125 C-52.44996094 87.92894531 -52.44996094 87.92894531 -52.375 89.1875 C-52.36339844 90.23550781 -52.36339844 90.23550781 -52.3515625 91.3046875 C-51.77477604 103.06225774 -45.83140039 115.31240396 -38.375 124.1875 C-37.59382812 125.13496094 -37.59382812 125.13496094 -36.796875 126.1015625 C-28.92368965 134.77735412 -17.58873526 140.43134485 -5.98046875 141.5 C12.29504449 142.11237322 27.76647409 136.11160667 41.625 124.1875 C42.63735118 123.20000565 43.64203739 122.20425194 44.625 121.1875 C48.44981497 122.49438439 50.79711599 123.99796028 53.61328125 126.8828125 C54.31904297 127.59824219 55.02480469 128.31367187 55.75195312 129.05078125 C56.47318359 129.79714844 57.19441406 130.54351563 57.9375 131.3125 C58.67806641 132.06660156 59.41863281 132.82070313 60.18164062 133.59765625 C62.00306633 135.45433535 63.81710536 137.31765852 65.625 139.1875 C59.99739241 151.25187218 44.49082237 159.44426368 32.75 164.0625 C30.71440792 164.78810579 28.67346717 165.4990807 26.625 166.1875 C25.42875 166.6 24.2325 167.0125 23 167.4375 C-1.06147773 172.78449505 -26.28252429 169.01026002 -47.3984375 156.37890625 C-63.64082165 145.18608852 -75.47127069 130.08374309 -81.375 111.1875 C-81.63394043 110.42139404 -81.89288086 109.65528809 -82.15966797 108.8659668 C-84.60847806 101.00556189 -84.82449485 93.56529447 -84.75 85.375 C-84.76160156 84.11107422 -84.77320313 82.84714844 -84.78515625 81.54492188 C-84.74852357 69.62098382 -83.06384728 58.23673705 -77.6875 47.5 C-77.33792236 46.78505371 -76.98834473 46.07010742 -76.62817383 45.33349609 C-66.57504679 25.34442709 -49.79563157 10.72915074 -28.74609375 3.25390625 C-19.20160595 0.2084132 -9.95119212 0.0054557 0 0 Z " fill="#4893CF" transform="translate(920.375,634.8125)"/>
<path d="M0 0 C7.734375 -0.04125 15.46875 -0.0825 23.4375 -0.125 C25.86150146 -0.14320801 28.28550293 -0.16141602 30.78295898 -0.18017578 C32.72900166 -0.18602331 34.67504681 -0.19111825 36.62109375 -0.1953125 C37.6114563 -0.20554443 38.60181885 -0.21577637 39.62219238 -0.22631836 C49.27868218 -0.228716 59.1645702 0.93030533 66.7265625 7.5 C71.77204218 12.86858921 73.68497566 18.69224447 74.375 25.9375 C73.97600339 33.96531189 71.53506608 40.48785731 65.95703125 46.3125 C57.73391039 53.40309523 48.01365454 54.2995751 37.59765625 54.1953125 C36.64145386 54.19329834 35.68525146 54.19128418 34.70007324 54.18920898 C31.15416616 54.17880507 27.60832788 54.15088279 24.0625 54.125 C16.121875 54.08375 8.18125 54.0425 0 54 C0 36.18 0 18.36 0 0 Z " fill="#FEFEFE" transform="translate(371,664)"/>
<path d="M0 0 C7.52578944 -0.04602929 15.05108602 -0.08582067 22.5769043 -0.10986328 C25.13453837 -0.11989132 27.69216106 -0.13351707 30.24975586 -0.15087891 C33.93606382 -0.17526779 37.62221954 -0.1865154 41.30859375 -0.1953125 C42.44332626 -0.20563507 43.57805878 -0.21595764 44.74717712 -0.22659302 C54.39449994 -0.22794186 65.16913323 0.48744357 72.57421875 7.48828125 C77.7793048 13.49873878 77.52323909 19.39822461 77 27 C75.99991357 32.00960724 73.19915701 35.50832937 69.20552063 38.55767822 C60.93624871 43.96544944 52.29615452 44.56064828 42.67578125 44.390625 C41.44836716 44.38496521 40.22095306 44.37930542 38.9563446 44.37347412 C35.07464936 44.35126322 31.19391152 44.3010934 27.3125 44.25 C24.66472697 44.22991534 22.01693932 44.21166804 19.36914062 44.1953125 C12.91210383 44.15486755 6.45711081 44.07654132 0 44 C0 29.48 0 14.96 0 0 Z " fill="#FEFEFE" transform="translate(704,731)"/>
<path d="M0 0 C6.81394349 -0.06908617 13.62665843 -0.12875718 20.44067383 -0.16479492 C22.75582002 -0.17982729 25.070938 -0.2002587 27.38598633 -0.22631836 C30.72484324 -0.26294596 34.0633217 -0.27978241 37.40234375 -0.29296875 C38.94038918 -0.31619453 38.94038918 -0.31619453 40.50950623 -0.33988953 C48.60847684 -0.34176151 56.26202001 0.70023461 62.4375 6.375 C63.07558594 6.93960938 63.71367188 7.50421875 64.37109375 8.0859375 C68.41822465 12.84155894 68.48614571 17.98757409 68.3828125 23.98828125 C67.643933 29.80130263 64.71006147 33.37763399 60.5625 37.3125 C52.25156697 42.78555346 45.02105512 43.14883106 35.3515625 43.09765625 C34.33903412 43.0962413 33.32650574 43.09482635 32.28329468 43.09336853 C29.06383249 43.08779143 25.84444101 43.07524312 22.625 43.0625 C20.43619892 43.05748204 18.24739675 43.05291965 16.05859375 43.04882812 C10.70568031 43.03868235 5.35291888 43.01910241 0 43 C0 28.81 0 14.62 0 0 Z " fill="#FDFDFE" transform="translate(704,663)"/>
<path d="M0 0 C0.66 0.33 1.32 0.66 2 1 C1.34 1.66 0.68 2.32 0 3 C-0.30592047 5.53065561 -0.30592047 5.53065561 -0.2561264 8.53479767 C-0.2623585 9.71841747 -0.26859059 10.90203727 -0.27501154 12.12152433 C-0.27171257 13.43336588 -0.26841359 14.74520743 -0.26501465 16.09680176 C-0.26858242 17.49541226 -0.27303175 18.89402074 -0.27829123 20.2926259 C-0.29025975 24.14940298 -0.28976745 28.00609544 -0.28735614 31.86288667 C-0.286938 36.01699894 -0.29802182 40.17108155 -0.30781555 44.32518005 C-0.3232955 51.52737067 -0.33168549 58.72954164 -0.33552551 65.93174744 C-0.34126289 76.34720544 -0.35983298 86.76261045 -0.38196605 97.17804509 C-0.41771371 114.07783522 -0.44601569 130.97762834 -0.46826172 147.87744141 C-0.46959671 148.88960419 -0.4709317 149.90176697 -0.47230715 150.94460136 C-0.48173542 158.12973399 -0.49089852 165.31486695 -0.5 172.5 C-0.51039655 180.70751977 -0.52091298 188.91503937 -0.53173828 197.12255859 C-0.53306902 198.13349384 -0.53439977 199.14442909 -0.53577083 200.18599874 C-0.5581735 217.02101174 -0.58835592 233.85600211 -0.62413073 250.69099188 C-0.64583703 261.08474202 -0.66042781 271.47845693 -0.66596949 281.8722285 C-0.67020563 288.98936401 -0.68141406 296.10646594 -0.69819343 303.22358286 C-0.70763063 307.33515264 -0.71370075 311.44665962 -0.71113014 315.55824089 C-0.7088303 319.3171445 -0.71557365 323.07591583 -0.72970897 326.83479255 C-0.73484798 328.84934765 -0.73005459 330.86392038 -0.72498846 332.87847567 C-0.73122056 334.06209547 -0.73745265 335.24571527 -0.7438736 336.46520233 C-0.74506777 337.49316028 -0.74626195 338.52111823 -0.74749231 339.58022642 C-1 342 -1 342 -3 344 C-3.06860272 300.46527729 -3.12149651 256.93056028 -3.15319599 213.39579422 C-3.1569483 208.2610958 -3.16083125 203.12639748 -3.16479492 197.99169922 C-3.16558185 196.96943359 -3.16636878 195.94716796 -3.16717956 194.89392458 C-3.18024868 178.32155189 -3.20391077 161.74921028 -3.23145839 145.17685606 C-3.25947076 128.18372186 -3.27616741 111.19060399 -3.28226548 94.19744766 C-3.2863906 83.70399087 -3.2994392 73.21062192 -3.3237494 62.71719216 C-3.3395552 55.53042964 -3.34441212 48.34371281 -3.34050413 41.15693416 C-3.33857451 37.00482971 -3.34162042 32.85287922 -3.35761642 28.70080185 C-3.37213467 24.90478067 -3.37300554 21.10901808 -3.36269668 17.31298541 C-3.36142119 15.93475726 -3.36529511 14.55651347 -3.37464955 13.17831649 C-3.38657042 11.31466035 -3.37845658 9.4509074 -3.36914349 7.5872364 C-3.37028265 6.54908102 -3.37142181 5.51092564 -3.37259549 4.441311 C-3.24963898 3.63567837 -3.12668247 2.83004574 -3 2 C-2.01 1.34 -1.02 0.68 0 0 Z " fill="#74ADDC" transform="translate(165,502)"/>
</svg>
