<svg xmlns="http://www.w3.org/2000/svg" width="1080" height="1350"><path fill="#fefefe" d="M0 0h1080v1350H0z"/><path fill="#4893cf" d="M464 335c1.72.906 3.41 1.869 5.07 2.879l2.921 1.765 3.134 1.918 5.036 3.053q3.538 2.15 7.071 4.307c3.428 2.09 6.86 4.172 10.292 6.255l1.715 1.042 1.72 1.044 5.214 3.169c12.394 7.534 24.834 14.989 37.277 22.441q8.386 5.026 16.77 10.058l8.186 4.913 22.832 13.699 1.833 1.1 3.489 2.093q4.902 2.942 9.807 5.877a3970 3970 0 0 1 28.883 17.45l1.755 1.068c11.248 6.844 22.56 13.577 33.896 20.274a1239 1239 0 0 1 20.962 12.664c5.144 3.167 10.328 6.267 15.512 9.368l6.605 3.958 3.162 1.893a3927 3927 0 0 1 7.034 4.224l1.678 1.004c1.68 1.016 3.342 2.06 5.002 3.108 3.1 1.874 6.26 3.313 9.595 4.726 14.707 6.677 14.707 6.677 17.782 13.31 1.876 7.748 1.292 15.65.915 23.547q-.06 3.806-.094 7.612a727 727 0 0 1-.47 17.89c-.247 6.798-.367 13.595-.477 20.396-.229 13.97-.632 27.93-1.107 41.895h-28l.337-8.926c.349-9.785.546-19.57.67-29.36.081-5.932.21-11.855.457-17.782 2.41-24.891 2.41-24.891-4.985-47.558-5.878-5.826-13.495-8.677-21.224-11.238-4.258-1.486-7.764-3.605-11.49-6.1l-3.359-2.046-3.156-1.928a3527 3527 0 0 0-40.133-24.1c-20.892-12.36-20.892-12.36-30.527-18.469-6.2-3.915-12.521-7.618-18.84-11.335-16.439-9.675-32.76-19.545-49.05-29.466-9.67-5.886-19.394-11.678-29.138-17.442-8.987-5.317-17.947-10.667-26.812-16.187l-2.47-1.535q-5.012-3.114-10.016-6.238a1483 1483 0 0 0-8.264-5.103l-2.52-1.583-2.355-1.436-2.055-1.273c-2.535-1.096-4.331-1.15-7.07-.895-2.993 1.452-2.993 1.452-6.187 3.563q-2 1.245-4.004 2.484l-2.278 1.412c-4.998 3.043-10.083 5.938-15.156 8.853l-3.397 1.957a7327 7327 0 0 1-23.507 13.46 3169 3169 0 0 0-18.968 10.923 6821 6821 0 0 1-16.873 9.75A5433 5433 0 0 0 338 434a5760 5760 0 0 1-51.035 29.446 5588 5588 0 0 0-48.899 28.269 4849 4849 0 0 1-25.988 15.049 536 536 0 0 0-5.869 3.427C203 512 203 512 199.84 513.423c-6.197 2.867-6.197 2.867-9.937 8.27-.42 3.397-.445 6.61-.345 10.031l-.031 3.892c-.027 3.554.02 7.104.081 10.658.052 3.836.034 7.671.025 11.507-.006 6.643.032 13.283.1 19.925.097 9.603.128 19.205.143 28.809.026 15.58.106 31.16.22 46.741.11 15.134.195 30.267.246 45.4l.01 2.828.045 14.043c.124 38.825.336 77.649.604 116.473l3.256 1.83 6.447 3.625a1647 1647 0 0 1 30.152 17.35c7.657 4.513 15.362 8.943 23.065 13.378a4014 4014 0 0 1 22.393 13.005 3061 3061 0 0 0 30.102 17.34 5463 5463 0 0 1 37.44 21.492c6.043 3.503 12.094 6.991 18.145 10.48a19437 19437 0 0 1 34.231 19.793q11.533 6.685 23.078 13.348l3.325 1.919q3.351 1.932 6.707 3.855c5.151 2.956 10.275 5.94 15.33 9.058.865.524 1.728 1.049 2.618 1.59a256 256 0 0 1 4.75 2.964c4.206 2.577 4.206 2.577 9.024 2.512 3.46-1.813 6.851-3.694 10.187-5.726q2.274-1.361 4.55-2.72l2.511-1.5c5.016-2.972 10.073-5.872 15.127-8.78l6.726-3.875 3.419-1.97q5.066-2.918 10.128-5.843a7112 7112 0 0 1 32.82-18.855 3209 3209 0 0 0 18.955-10.916c6.832-3.961 13.672-7.909 20.514-11.854q16.01-9.234 32-18.5c37.797-21.9 37.797-21.9 55.938-32.25 6.468-3.69 12.929-7.394 19.375-11.125l2.276-1.317c4.633-2.684 9.252-5.39 13.864-8.109l3.323-1.953q3.244-1.908 6.481-3.828l2.966-1.742 2.648-1.565C727 832 727 832 729 832v-19q6.438-.04 12.875-.062l3.707-.026 3.535-.01 3.27-.016C755 813 755 813 757 814v33l-11 6c-10.235 5.659-20.348 11.516-30.443 17.42-16.142 9.437-32.351 18.76-48.592 28.026A5330 5330 0 0 0 621 925c-17.91 10.462-35.887 20.803-53.904 31.077a2765 2765 0 0 0-27.007 15.628 2514 2514 0 0 1-23.402 13.482c-11.794 6.728-11.794 6.728-23.562 13.5l-2.217 1.276a554 554 0 0 0-12.783 7.635l-3.024 1.839a525 525 0 0 0-5.808 3.59l-2.66 1.614-2.347 1.454c-2.895 1.146-4.343.826-7.286-.095-1.887-.841-1.887-.841-3.687-1.863l-2.084-1.17-2.229-1.28-2.371-1.34A2036 2036 0 0 1 439 1006l-5.184-2.945c-9.918-5.643-19.8-11.35-29.671-17.075-6.043-3.503-12.094-6.991-18.145-10.48q-12.382-7.139-24.75-14.303a6708 6708 0 0 0-13.355-7.717 5578 5578 0 0 1-31.77-18.418c-9.98-5.836-20.008-11.583-30.05-17.31a3701 3701 0 0 1-24.196-13.924c-5.848-3.393-11.708-6.765-17.567-10.14a4325 4325 0 0 1-25.5-14.813 1426 1426 0 0 0-25.922-14.823 156 156 0 0 1-5.18-3.038c-2.916-1.694-5.893-2.867-9.044-4.061-7.286-3.066-14.783-6.39-17.952-14.07-1.956-8.935-1.701-18.062-1.517-27.159.06-4.168-.006-8.334-.057-12.501-.078-8.15-.039-16.294.042-24.443.091-9.497.072-18.993.05-28.49-.035-16.947.04-33.893.174-50.84q.195-24.645.103-49.292a6589 6589 0 0 1 .021-59.47l.013-2.848c.025-6.615.013-13.228-.013-19.843-.03-8.063.002-16.123.111-24.186.055-4.112.083-8.22.036-12.332-.242-24.008-.242-24.008 3.995-29.742 3.95-3.51 8.258-5.429 13.252-7.02 3.122-1.079 5.706-2.708 8.51-4.447q3-1.73 6.004-3.457l3.317-1.912L205 479q6.563-3.78 13.125-7.562l3.257-1.878a4052 4052 0 0 0 21.805-12.685c8.843-5.174 17.74-10.243 26.668-15.267a994 994 0 0 0 18.463-10.67c9.706-5.741 19.493-11.342 29.265-16.97q5.066-2.918 10.128-5.843a7112 7112 0 0 1 32.82-18.855 3209 3209 0 0 0 18.955-10.916c6.832-3.961 13.672-7.909 20.514-11.854 10.137-5.845 10.137-5.845 20.265-11.706q2.22-1.286 4.445-2.562a589 589 0 0 0 12.26-7.243c2.356-1.427 4.722-2.839 7.09-4.249a475 475 0 0 0 5.135-3.142l3.2-1.899 2.839-1.724c3.685-1.299 5.256-.57 8.766 1.025"/><path fill="#4893cf" d="M674 637c101.807 0 101.807 0 119.04 15.879 7.697 8.107 10.304 17.97 10.17 28.898-.719 10.994-5.118 20.817-13.335 28.223-1.98 1.653-3.735 2.932-6.055 4.063-1.999.802-1.999.802-2.82 2.937l1.71.375c10.396 2.838 19.87 9.936 25.29 19.25 5.36 11.043 5.38 22.884 2.04 34.625-4.02 10.636-12.06 18.282-22.005 23.398-10.842 4.828-21.458 6.517-33.205 6.466h-2.706c-2.864 0-5.729-.008-8.593-.016l-5.337-.003c-6.564-.006-13.13-.02-19.694-.033L674 801zM340 637c104.759 0 104.759 0 122.379 16.184 10.174 11.4 13.99 24.355 13.836 39.343-.86 13.885-5.9 26.036-16.215 35.473-6.775 5.11-14.201 8.727-22 12l.987 1.367 1.4 1.938 1.574 2.18 3.504 4.853c2.938 4.071 5.88 8.14 8.836 12.197C463.487 775.164 472.346 788.002 481 801c-30.847 2.672-30.847 2.672-38.69-1.395-3.992-3.669-6.097-8.277-8.197-13.206-1.854-3.996-4.494-7.378-7.113-10.899a916 916 0 0 1-2.965-4.2l-1.495-2.118q-2.43-3.444-4.856-6.889l-1.647-2.336q-1.56-2.212-3.117-4.426l-1.424-2.02-1.317-1.869a124 124 0 0 0-3.019-3.997C406 746 406 746 406 744h-35v57h-31zM583.563 634.688l3.748-.01c22.305.13 41.877 7.82 58.689 22.322 1.879 2.309 1.879 2.309 3 4l-2.45 2.852-3.237 3.773-1.608 1.871A899 899 0 0 0 632 681c-4.205-.523-6.201-1.739-9.312-4.562-4.4-3.672-8.897-6.339-14-8.875l-2.066-1.036c-7.194-3.481-13.461-3.735-21.31-3.777l-2.857-.062c-13.948-.077-25.15 5.506-35.287 14.925-8.714 9.593-14.614 22.35-15.168 35.387l-.121 2.77c-.329 15.066 3.259 31.373 13.617 42.894 1.158 1.122 2.33 2.23 3.504 3.336v2l1.719.82c2.364 1.223 4.543 2.615 6.781 4.055 13.25 7.881 26.553 9.07 41.313 5.5 10.11-3.038 17.987-7.833 25.996-14.64 2.005-1.588 3.865-2.696 6.191-3.735 6.712 5.635 12.86 11.76 19 18-4.966 11.892-21.66 20.236-33 25-22.943 7.922-48.182 7.31-70.312-2.672-20.918-10.337-35.428-26.8-43.438-48.765A121 121 0 0 1 502 743l-.84-3.285c-5.134-22.502-2-46.067 9.805-66.04C522.133 656.612 537.298 643.986 557 638l2.557-.787c8.077-2.277 15.646-2.635 24.005-2.525M920.375 634.813l3.54-.038c6.953-.011 13.343.508 20.085 2.225l3.398.86C961.791 642.165 974.53 649.085 985 660c-1.594 3.795-4.019 6.384-6.812 9.375-3.512 3.796-6.932 7.609-10.188 11.625-4.205-.523-6.201-1.739-9.312-4.562-4.4-3.672-8.897-6.339-14-8.875l-2.066-1.036c-7.213-3.49-13.502-3.735-21.372-3.777l-2.883-.062c-12.979-.072-25.012 5.44-34.523 14.269-10.89 12.066-16.602 28.37-15.992 44.55L868 724l.023 2.117c.577 11.758 6.52 24.008 13.977 32.883l1.578 1.914c7.873 8.676 19.208 14.33 30.817 15.399 18.275.612 33.746-5.389 47.605-17.313a145 145 0 0 0 3-3c3.825 1.307 6.172 2.81 8.988 5.695l2.139 2.168 2.186 2.262 2.244 2.285q2.731 2.785 5.443 5.59c-5.628 12.064-21.134 20.257-32.875 24.875A356 356 0 0 1 947 801l-3.625 1.25c-24.061 5.347-49.283 1.573-70.398-11.059C856.734 780 844.904 764.896 839 746l-.785-2.322c-2.448-7.86-2.664-15.3-2.59-23.49l-.035-3.83c.036-11.925 1.721-23.309 7.097-34.045l1.06-2.167c10.053-19.99 26.832-34.604 47.882-42.08 9.544-3.045 18.795-3.248 28.746-3.254"/><path fill="#fefefe" d="m371 664 23.438-.125 7.345-.055 5.838-.015 3.001-.031c9.657-.003 19.543 1.156 27.105 7.726 5.045 5.369 6.958 11.192 7.648 18.438-.399 8.027-2.84 14.55-8.418 20.375-8.223 7.09-17.943 7.987-28.36 7.882l-2.897-.006c-3.546-.01-7.092-.038-10.637-.064L371 718zM704 731c7.526-.046 15.051-.086 22.577-.11q3.837-.016 7.673-.04c3.686-.025 7.372-.037 11.059-.045l3.438-.032c9.647 0 20.422.714 27.827 7.715 5.205 6.01 4.95 11.91 4.426 19.512-1 5.01-3.8 8.508-7.794 11.558-8.27 5.407-16.91 6.003-26.53 5.833l-3.72-.018c-3.881-.022-7.762-.072-11.644-.123q-3.97-.03-7.943-.055c-6.457-.04-12.912-.118-19.369-.195z"/><path fill="#fdfdfe" d="M704 663c6.814-.07 13.627-.129 20.44-.165q3.473-.022 6.946-.061c3.339-.037 6.677-.054 10.016-.067l3.108-.047c8.098-.002 15.752 1.04 21.928 6.715l1.933 1.71c4.047 4.757 4.115 9.903 4.012 15.903-.74 5.813-3.673 9.39-7.82 13.324-8.311 5.474-15.542 5.837-25.211 5.786l-3.069-.005c-3.22-.005-6.439-.018-9.658-.03q-3.284-.008-6.566-.014c-5.353-.01-10.706-.03-16.059-.049z"/><path fill="#74addc" d="m165 502 2 1-2 2c-.306 2.53-.306 2.53-.256 5.535l-.019 3.587.01 3.975-.013 4.196c-.012 3.856-.012 7.713-.01 11.57.001 4.154-.01 8.308-.02 12.462q-.022 10.803-.028 21.607c-.005 10.415-.024 20.83-.046 31.246q-.053 25.35-.086 50.7l-.004 3.067-.06 46.178-.004 3.063q-.034 25.253-.088 50.505-.033 15.59-.042 31.181-.006 10.675-.032 21.352-.016 6.167-.013 12.334.003 5.64-.019 11.277c-.005 2.014 0 4.029.005 6.043l-.019 3.587-.003 3.115C164 844 164 844 162 846a154074 154074 0 0 1-.165-146.008l-.002-3.098q-.022-24.859-.064-49.717a39531 39531 0 0 1-.051-50.98q-.005-15.74-.042-31.48-.023-10.78-.017-21.56c.002-4.152 0-8.304-.017-12.456q-.02-5.694-.005-11.388.003-2.067-.012-4.135c-.012-1.863-.003-3.727.006-5.59l-.004-3.147L162 504z"/></svg>